<svg xmlns="http://www.w3.org/2000/svg" width="964" height="964" viewBox="0 0 964 964">
<g>
<path d="M 317.00 915.05 C303.33,917.05 299.29,917.28 298.57,916.11 C298.19,915.50 298.09,914.66 298.36,914.23 C298.62,913.81 298.11,911.00 297.24,907.98 C296.36,904.97 295.52,898.26 295.37,893.08 C295.21,887.91 294.82,882.98 294.50,882.14 C293.75,880.18 293.84,824.07 294.63,806.72 C294.96,799.45 295.65,792.97 296.17,792.33 C296.68,791.69 297.05,787.64 296.97,783.33 C296.78,771.84 297.42,760.69 298.36,759.20 C298.81,758.49 299.13,752.19 299.07,745.20 C298.99,736.24 299.42,730.93 300.54,727.17 C301.46,724.08 301.85,720.60 301.47,718.88 C301.11,717.24 301.30,715.35 301.89,714.63 C302.47,713.93 303.03,710.68 303.12,707.42 C303.21,704.17 303.92,699.48 304.71,697.02 C305.54,694.39 305.87,691.12 305.49,689.12 C305.09,686.95 305.28,685.44 306.02,684.99 C306.67,684.59 307.60,680.72 308.10,676.38 C308.59,672.05 309.37,666.23 309.82,663.45 C310.30,660.50 310.24,657.22 309.68,655.54 C309.03,653.58 309.08,652.10 309.86,650.85 C310.49,649.85 311.00,646.83 311.00,644.14 C311.00,639.00 313.17,635.40 314.38,638.54 C314.71,639.41 315.44,639.85 315.99,639.50 C317.58,638.52 317.17,635.81 315.09,633.56 C312.84,631.14 312.25,626.52 313.74,623.00 C315.10,619.76 316.86,613.30 317.40,609.50 C317.64,607.85 318.36,604.12 319.01,601.21 C319.65,598.30 319.94,595.28 319.64,594.49 C319.33,593.71 319.52,592.80 320.04,592.47 C320.57,592.15 321.00,590.08 321.00,587.87 C321.00,585.64 321.67,583.19 322.50,582.36 C323.33,581.53 324.00,579.43 324.01,577.68 C324.01,575.93 325.12,572.70 326.47,570.50 C327.83,568.30 328.95,565.49 328.97,564.25 C328.99,563.01 329.34,562.00 329.75,561.99 C330.16,561.99 331.24,560.68 332.16,559.08 C333.57,556.59 334.62,556.07 339.41,555.47 C342.48,555.08 345.00,554.37 345.00,553.88 C345.00,552.66 350.74,552.77 351.50,554.00 C352.43,555.50 357.11,555.19 360.50,553.42 C362.15,552.55 367.33,551.47 372.00,551.01 C376.67,550.54 382.96,549.45 385.97,548.58 C388.98,547.71 393.31,547.00 395.61,547.00 C399.47,547.00 401.68,545.37 401.19,542.85 C401.13,542.50 402.57,542.67 404.39,543.23 C407.28,544.11 408.34,543.88 412.41,541.50 C416.44,539.14 417.78,538.85 421.97,539.40 C424.98,539.80 427.10,539.65 427.49,539.01 C427.85,538.44 428.56,538.23 429.07,538.54 C429.58,538.86 430.00,538.59 430.00,537.95 C430.00,537.31 430.66,537.04 431.47,537.35 C433.05,537.96 443.82,534.58 445.42,532.98 C445.96,532.44 447.67,532.00 449.23,532.00 C450.79,532.00 453.63,531.35 455.54,530.55 C457.44,529.75 461.70,528.57 465.00,527.92 C468.30,527.27 471.00,526.31 471.00,525.78 C471.00,525.22 472.66,525.10 475.03,525.51 C477.90,525.99 479.73,525.75 481.37,524.67 C482.64,523.84 485.61,522.64 487.97,522.01 C490.33,521.37 494.69,519.74 497.66,518.38 C505.20,514.93 516.32,511.27 517.77,511.76 C518.44,511.98 519.43,510.99 519.98,509.55 C520.83,507.33 521.51,506.97 524.55,507.18 C526.52,507.31 528.43,506.94 528.81,506.35 C529.19,505.77 531.18,504.98 533.22,504.60 C535.27,504.23 537.30,503.37 537.72,502.71 C538.89,500.89 543.07,499.03 546.93,498.60 C548.82,498.39 550.90,497.50 551.54,496.61 C552.19,495.72 554.08,495.00 555.74,495.00 C557.40,495.00 559.32,494.33 560.00,493.50 C560.68,492.67 562.03,492.00 562.99,492.00 C563.95,492.00 565.81,491.15 567.13,490.11 C569.90,487.93 576.55,485.00 578.73,485.00 C579.54,485.00 581.53,483.89 583.14,482.54 C584.74,481.19 587.73,479.77 589.78,479.38 C594.07,478.58 599.21,475.15 598.31,473.69 C597.97,473.14 598.13,472.96 598.67,473.29 C599.20,473.63 601.06,473.03 602.80,471.97 C604.54,470.92 607.57,469.87 609.53,469.66 C611.49,469.44 614.11,468.31 615.36,467.13 C616.61,465.96 618.32,465.00 619.16,465.00 C620.00,465.00 621.65,464.17 622.81,463.16 C623.97,462.15 625.96,461.41 627.21,461.50 C628.86,461.62 629.84,460.88 630.70,458.84 C631.70,456.48 632.50,456.00 635.45,456.00 C637.40,456.00 639.00,455.59 639.00,455.10 C639.00,454.60 640.34,453.73 641.98,453.16 C643.62,452.59 645.53,451.63 646.23,451.02 C649.78,447.96 657.72,443.65 659.36,443.89 C660.45,444.05 662.32,442.86 663.86,441.02 C665.92,438.58 667.60,437.73 671.49,437.18 C675.59,436.60 676.83,435.93 678.49,433.36 C680.95,429.54 687.83,425.00 691.17,425.00 C692.74,425.00 694.43,423.91 695.86,421.97 C697.09,420.31 698.49,419.18 698.97,419.48 C699.44,419.77 699.98,419.62 700.16,419.15 C700.35,418.67 702.74,417.30 705.48,416.09 C709.06,414.52 710.08,413.67 709.10,413.06 C708.13,412.46 708.71,412.00 711.12,411.47 C712.98,411.07 716.07,409.44 717.98,407.87 C719.89,406.29 722.01,405.00 722.70,405.00 C723.38,405.00 724.94,403.64 726.17,401.98 C727.40,400.33 731.56,396.84 735.42,394.23 C739.28,391.63 744.52,387.48 747.05,385.00 C755.43,376.82 760.02,373.00 761.46,373.00 C762.24,373.00 766.62,369.37 771.19,364.92 C775.76,360.48 778.83,357.15 778.00,357.51 C777.17,357.88 777.62,357.24 779.00,356.11 C780.38,354.97 781.84,354.03 782.25,354.02 C782.66,354.01 783.00,353.36 783.00,352.59 C783.00,351.81 784.28,350.10 785.84,348.79 C787.41,347.47 788.96,345.29 789.30,343.94 C789.64,342.58 791.17,340.46 792.71,339.23 C794.24,337.99 797.50,335.37 799.95,333.40 C802.40,331.43 804.88,328.87 805.46,327.70 C806.04,326.54 807.64,325.27 809.01,324.89 C810.38,324.51 810.98,324.15 810.34,324.10 C808.49,323.94 810.05,320.00 811.96,320.00 C812.92,320.00 814.73,320.90 816.00,322.00 C817.27,323.10 817.91,324.00 817.43,324.00 C816.95,324.00 817.56,324.70 818.78,325.56 C820.23,326.57 821.00,328.15 821.00,330.08 C821.00,332.33 821.61,333.28 823.50,334.00 C825.48,334.75 826.00,335.65 826.00,338.30 C826.00,340.58 826.80,342.40 828.50,344.00 C829.88,345.29 831.00,347.21 831.00,348.27 C831.00,349.33 831.90,351.46 833.01,353.01 C834.11,354.56 834.67,356.02 834.26,356.25 C833.84,356.48 833.99,356.56 834.59,356.43 C835.93,356.13 841.97,361.66 842.09,363.30 C842.14,363.96 842.11,366.39 842.02,368.70 C841.89,371.90 842.37,373.32 844.01,374.70 C845.20,375.69 846.85,378.19 847.69,380.25 C848.53,382.31 849.62,384.00 850.11,384.00 C850.60,384.00 851.00,385.06 851.00,386.35 C851.00,387.63 851.95,389.55 853.10,390.59 C856.17,393.37 858.00,397.41 858.00,401.40 C858.00,403.74 858.82,405.79 860.50,407.59 C861.88,409.08 863.00,411.13 863.00,412.16 C863.00,414.80 865.34,421.98 866.24,422.12 C866.66,422.19 867.45,422.36 868.00,422.50 C868.55,422.64 869.45,422.81 870.00,422.88 C870.55,422.94 869.76,425.23 868.25,427.95 C865.63,432.67 865.58,432.99 867.25,434.67 C868.92,436.35 869.00,436.34 869.00,434.37 C869.00,433.24 869.89,431.50 870.98,430.52 C872.78,428.89 873.01,428.87 873.59,430.37 C873.93,431.27 873.94,433.10 873.60,434.44 C873.27,435.78 873.48,437.18 874.07,437.54 C876.17,438.84 876.77,442.42 875.28,444.70 C873.40,447.57 874.41,449.39 877.08,447.96 C879.97,446.41 881.15,447.68 880.42,451.56 C879.86,454.58 880.08,455.08 882.39,455.96 C884.64,456.81 885.00,457.54 885.01,461.23 C885.02,463.68 886.10,467.81 887.55,470.93 C889.29,474.68 889.89,477.25 889.46,479.19 C888.99,481.33 889.44,482.73 891.31,484.95 C892.67,486.57 893.94,487.80 894.14,487.69 C894.34,487.59 894.41,487.67 894.29,487.87 C894.18,488.08 894.94,489.93 895.99,491.98 C897.04,494.03 898.21,498.12 898.60,501.06 C899.39,506.98 900.60,508.92 903.10,508.26 C904.41,507.92 904.65,508.37 904.26,510.41 C903.99,511.83 904.55,514.64 905.51,516.66 C906.47,518.68 907.32,521.49 907.41,522.92 C907.50,524.34 908.12,526.48 908.79,527.68 C909.45,528.89 910.00,530.95 910.00,532.28 C910.00,533.61 910.90,535.51 912.01,536.51 C913.11,537.51 913.93,538.81 913.84,539.41 C913.12,543.82 918.34,559.85 921.02,561.52 C921.55,561.84 921.49,563.21 920.90,564.78 C919.76,567.76 920.54,574.00 922.05,574.00 C922.57,574.00 923.00,576.24 923.00,578.97 C923.00,581.97 923.78,585.44 924.98,587.73 C926.06,589.81 927.13,593.89 927.34,596.78 C927.56,599.76 928.44,602.83 929.37,603.85 C930.37,604.97 931.00,607.40 931.00,610.21 C931.00,612.71 931.65,616.31 932.45,618.22 C933.24,620.13 933.64,622.67 933.32,623.88 C933.00,625.09 933.31,628.76 934.01,632.03 C935.01,636.77 935.02,638.28 934.02,639.47 C933.30,640.34 933.04,642.04 933.41,643.51 C934.17,646.51 932.55,650.00 930.40,650.00 C929.55,650.00 928.95,650.77 929.05,651.75 C929.40,655.18 928.96,655.87 926.25,656.18 C924.31,656.41 923.58,657.00 923.78,658.20 C923.94,659.15 923.06,660.42 921.78,661.08 C920.53,661.74 919.82,661.93 920.20,661.52 C921.01,660.64 918.66,658.00 917.07,658.00 C915.53,658.00 915.75,659.55 917.50,661.00 C919.87,662.96 919.27,664.71 915.81,665.92 C914.05,666.53 909.46,670.39 905.56,674.54 C900.93,679.46 897.53,682.22 895.67,682.56 C894.07,682.85 890.67,685.23 887.87,688.03 C885.14,690.77 882.14,693.00 881.21,693.00 C880.28,693.00 878.39,694.08 877.01,695.41 C867.35,704.66 861.78,709.46 860.96,709.25 C860.43,709.11 860.00,709.37 860.00,709.82 C860.00,711.13 852.02,716.00 849.86,716.00 C848.10,716.00 845.90,717.84 842.21,722.40 C841.50,723.28 840.07,724.00 839.03,724.00 C837.99,724.00 836.10,725.32 834.82,726.94 C833.55,728.56 831.38,730.07 830.00,730.29 C826.31,730.88 823.94,732.09 824.54,733.07 C824.83,733.54 823.29,734.83 821.11,735.94 C818.93,737.06 816.89,738.78 816.57,739.77 C816.26,740.76 815.09,741.64 813.98,741.73 C812.87,741.81 812.22,741.46 812.54,740.94 C812.86,740.42 812.86,740.00 812.53,740.00 C812.21,740.00 811.52,741.12 811.00,742.50 C810.48,743.88 809.48,745.00 808.77,745.00 C806.50,745.00 795.46,750.66 790.82,754.20 C788.34,756.10 782.97,759.36 778.90,761.44 C774.83,763.52 770.30,766.35 768.83,767.72 C767.36,769.10 765.76,769.97 765.26,769.66 C764.77,769.36 763.72,770.04 762.93,771.18 C760.27,775.02 759.05,775.82 752.58,777.97 C749.03,779.15 745.99,780.45 745.81,780.85 C745.25,782.15 736.37,786.89 733.53,787.41 C732.00,787.69 730.11,788.83 729.32,789.96 C728.42,791.24 726.77,792.00 724.90,792.00 C723.26,792.00 720.70,792.81 719.21,793.79 C712.63,798.14 701.32,804.00 699.52,804.00 C698.90,804.00 696.85,805.14 694.96,806.53 C693.07,807.92 689.72,809.57 687.51,810.20 C685.31,810.83 682.60,812.09 681.50,813.00 C679.51,814.65 670.05,818.00 667.36,818.00 C666.59,818.00 665.44,819.13 664.81,820.52 C663.88,822.56 663.03,823.00 660.33,822.82 C658.50,822.69 657.00,822.06 657.00,821.40 C657.00,820.03 654.01,818.64 653.11,819.59 C652.77,819.93 653.51,820.90 654.75,821.73 C658.38,824.17 657.64,826.12 653.25,825.65 C651.16,825.43 648.25,825.89 646.66,826.70 C645.10,827.49 643.24,827.92 642.53,827.65 C641.83,827.38 640.75,828.25 640.15,829.58 C639.54,830.91 638.34,832.00 637.47,832.00 C636.61,832.00 634.46,832.77 632.70,833.71 C630.94,834.64 629.15,835.31 628.72,835.20 C628.29,835.08 626.63,835.66 625.02,836.49 C623.41,837.32 621.16,838.00 620.02,838.00 C618.87,838.00 617.68,838.67 617.36,839.50 C617.05,840.33 615.57,841.00 614.09,841.00 C612.61,841.00 610.83,841.56 610.14,842.25 C609.13,843.25 609.03,843.10 609.61,841.50 C610.33,839.53 610.31,839.53 608.17,841.40 C606.98,842.45 606.00,842.99 606.00,842.60 C606.00,842.22 604.49,843.05 602.66,844.45 C600.82,845.85 598.68,847.01 597.91,847.03 C597.13,847.05 595.65,847.71 594.61,848.49 C593.58,849.28 590.67,850.23 588.16,850.60 C585.65,850.98 580.54,852.84 576.82,854.73 C570.73,857.82 564.11,860.15 557.00,861.71 C555.62,862.01 553.69,862.97 552.70,863.83 C551.68,864.72 549.46,865.30 547.59,865.18 C545.61,865.05 543.77,865.57 543.02,866.48 C542.32,867.32 540.66,868.00 539.31,868.00 C537.97,868.00 535.24,869.24 533.26,870.75 C530.42,872.92 528.58,873.50 524.58,873.50 C521.33,873.50 518.54,874.15 516.83,875.31 C514.57,876.85 513.85,876.92 512.08,875.82 C510.55,874.86 509.54,874.80 508.25,875.60 C500.83,880.20 495.10,882.28 491.45,881.68 C488.44,881.20 487.42,881.52 485.54,883.55 C483.41,885.85 482.83,885.96 476.13,885.37 C471.15,884.93 468.96,885.08 468.88,885.87 C468.81,886.49 468.69,887.47 468.62,888.04 C468.37,890.18 465.47,890.78 456.87,890.46 C451.83,890.28 448.00,890.54 448.00,891.07 C448.00,891.58 446.86,892.00 445.46,892.00 C444.06,892.00 441.16,892.90 439.00,894.00 C436.84,895.10 433.60,896.01 431.79,896.01 C429.98,896.02 426.54,897.14 424.14,898.51 C420.76,900.45 418.49,900.98 414.02,900.87 C408.43,900.75 400.00,903.34 400.00,905.19 C400.00,906.49 395.55,906.12 393.56,904.67 C392.05,903.56 390.43,903.56 384.12,904.63 C370.68,906.92 369.94,907.09 370.38,907.80 C370.61,908.19 367.46,908.50 363.37,908.50 C358.96,908.50 355.64,908.96 355.22,909.62 C354.82,910.24 352.25,910.73 349.50,910.71 C340.77,910.65 329.59,911.71 327.00,912.85 C325.62,913.45 321.12,914.44 317.00,915.05 ZM 332.74 519.75 C330.30,521.67 326.20,522.05 324.64,520.50 C323.82,519.68 322.04,519.00 320.69,519.00 C318.13,519.00 313.00,513.47 313.00,510.70 C313.00,509.92 311.63,507.75 309.96,505.89 C308.29,504.02 306.33,501.15 305.61,499.50 C304.03,495.91 298.52,489.81 297.64,490.69 C297.29,491.04 296.73,489.91 296.39,488.20 C296.05,486.48 294.69,484.37 293.38,483.52 C292.07,482.66 291.00,481.15 291.00,480.18 C291.00,479.20 290.44,477.79 289.75,477.05 C288.73,475.96 288.78,475.86 290.00,476.53 C290.83,476.98 289.59,475.47 287.25,473.18 C284.91,470.88 283.00,468.09 283.00,466.97 C283.00,465.85 282.33,464.68 281.50,464.36 C280.64,464.03 280.00,462.54 280.00,460.89 C280.00,459.30 279.52,458.00 278.94,458.00 C278.36,458.00 278.16,457.55 278.50,457.00 C278.84,456.45 278.43,456.00 277.59,456.00 C276.76,456.00 275.59,455.10 275.00,454.00 C274.21,452.52 274.24,452.00 275.12,452.00 C275.91,452.00 275.79,451.41 274.77,450.25 C273.93,449.29 272.91,447.38 272.50,446.00 C272.09,444.62 271.20,442.83 270.50,442.00 C269.81,441.17 268.45,438.92 267.49,437.00 C266.52,435.08 265.12,433.14 264.36,432.70 C263.61,432.26 263.00,430.74 263.00,429.31 C263.00,427.89 262.27,426.19 261.38,425.54 C260.49,424.89 259.57,422.60 259.33,420.45 C259.10,418.31 258.25,415.83 257.45,414.95 C256.65,414.06 256.00,412.90 256.00,412.36 C256.00,411.82 254.64,410.07 252.97,408.48 C251.31,406.88 250.18,404.97 250.46,404.24 C250.75,403.50 250.60,403.13 250.13,403.42 C248.90,404.18 247.00,399.42 247.00,395.56 C247.00,393.64 246.41,391.99 245.62,391.69 C244.87,391.40 244.25,389.90 244.25,388.37 C244.25,386.84 243.75,385.42 243.14,385.21 C242.53,385.01 241.54,382.97 240.93,380.67 C240.32,378.38 239.01,375.60 238.03,374.50 C237.04,373.40 235.92,371.49 235.55,370.25 C235.17,369.01 234.45,368.00 233.93,368.00 C232.68,368.00 232.74,364.28 234.00,363.50 C235.24,362.73 235.32,358.32 234.10,357.56 C233.61,357.26 232.95,357.68 232.64,358.51 C231.69,360.97 229.26,360.20 228.70,357.25 C227.83,352.73 224.71,344.59 223.31,343.18 C222.59,342.45 222.00,341.42 222.00,340.88 C222.00,340.35 220.95,338.78 219.67,337.40 C218.39,336.02 217.42,333.90 217.52,332.69 C217.62,331.49 217.28,330.23 216.78,329.90 C215.78,329.24 214.13,323.60 213.29,318.00 C213.01,316.08 212.06,313.69 211.19,312.71 C209.49,310.78 207.50,305.90 205.79,299.50 C205.20,297.30 203.66,294.35 202.36,292.95 C201.06,291.54 200.00,289.38 200.00,288.15 C200.00,286.91 199.38,284.69 198.61,283.20 C197.85,281.72 196.48,277.59 195.58,274.03 C194.67,270.46 192.99,266.55 191.84,265.33 C190.06,263.44 189.92,262.67 190.84,260.04 C191.76,257.39 191.64,256.79 189.95,255.74 C188.71,254.96 188.00,253.41 188.00,251.45 C188.00,249.76 187.34,247.51 186.53,246.44 C184.53,243.80 184.60,239.37 186.64,238.58 C187.55,238.24 188.01,237.67 187.67,237.33 C187.33,236.99 186.33,237.31 185.45,238.04 C183.33,239.80 182.04,237.87 182.02,232.90 C182.01,230.76 181.19,228.37 180.00,227.00 C178.63,225.42 178.00,223.25 177.99,220.10 C177.99,217.57 177.30,214.19 176.47,212.59 C175.25,210.25 175.17,209.01 176.08,206.26 C177.45,202.10 193.27,185.78 195.21,186.53 C195.98,186.82 197.31,185.75 198.33,184.02 C199.31,182.36 200.54,181.00 201.07,181.00 C201.59,181.00 203.43,179.65 205.16,178.00 C206.88,176.35 209.34,175.00 210.63,175.00 C212.02,175.00 213.62,173.98 214.62,172.46 C215.98,170.38 224.12,164.65 226.00,164.45 C227.82,164.26 231.05,162.72 230.59,162.26 C229.54,161.21 234.26,158.04 237.88,157.37 C239.87,157.00 243.27,155.19 245.43,153.35 C247.59,151.51 249.77,150.00 250.27,150.00 C250.77,150.00 252.33,149.10 253.73,148.00 C255.13,146.90 257.14,146.00 258.20,146.00 C259.26,146.00 261.61,144.88 263.41,143.50 C265.21,142.12 267.22,141.00 267.87,141.00 C270.32,141.00 281.59,135.68 283.78,133.49 C285.04,132.24 287.56,130.93 289.39,130.59 C291.23,130.24 293.53,129.07 294.52,127.98 C295.50,126.89 297.09,126.00 298.03,126.00 C298.98,126.00 300.31,125.33 300.99,124.51 C301.67,123.69 302.59,123.25 303.04,123.53 C303.49,123.81 304.13,123.60 304.45,123.08 C304.78,122.55 306.02,122.31 307.23,122.54 C308.55,122.80 310.32,122.11 311.72,120.80 C312.99,119.60 314.81,118.52 315.76,118.38 C320.28,117.75 325.06,116.08 326.53,114.62 C327.42,113.73 329.12,113.00 330.32,112.99 C331.52,112.99 333.78,112.32 335.35,111.50 C336.92,110.68 338.50,110.19 338.87,110.42 C339.70,110.93 343.85,108.75 343.93,107.75 C343.97,107.34 344.00,106.56 344.00,106.02 C344.00,105.40 344.95,105.41 346.65,106.06 C348.82,106.88 349.69,106.70 351.47,105.03 C352.66,103.91 354.40,103.00 355.35,103.00 C356.29,103.00 357.33,102.29 357.66,101.43 C358.07,100.36 359.41,99.92 361.88,100.03 C367.38,100.28 368.00,100.12 368.00,98.50 C368.00,97.68 368.61,97.00 369.37,97.00 C370.91,97.00 380.04,93.60 384.33,91.43 C385.89,90.64 388.78,90.00 390.77,90.00 C393.05,90.00 395.19,89.23 396.61,87.90 C398.92,85.73 402.28,85.14 405.13,86.40 C406.20,86.87 407.67,86.28 409.41,84.67 C411.25,82.96 413.77,82.01 417.76,81.51 C420.90,81.12 425.72,79.64 428.48,78.23 C431.24,76.81 434.75,75.74 436.28,75.85 C437.81,75.95 440.04,75.51 441.23,74.88 C442.42,74.24 445.22,73.59 447.45,73.44 C449.68,73.29 453.52,72.42 456.00,71.51 C458.48,70.59 462.49,69.43 464.92,68.92 C467.36,68.41 470.08,67.33 470.97,66.53 C472.07,65.53 473.74,65.25 476.17,65.64 C478.32,65.99 480.02,65.78 480.43,65.11 C480.81,64.50 482.11,64.00 483.32,64.00 C484.54,64.00 488.00,63.03 491.01,61.84 C494.03,60.65 498.08,59.64 500.00,59.58 C503.83,59.47 512.00,56.16 512.00,54.71 C512.00,54.21 514.71,54.01 518.03,54.26 C521.34,54.51 524.29,54.33 524.59,53.86 C524.88,53.39 527.34,53.00 530.04,53.00 C534.67,53.00 543.89,51.16 545.00,50.02 C545.28,49.73 550.33,49.45 556.23,49.39 C563.14,49.32 567.49,48.84 568.45,48.04 C569.41,47.24 571.63,47.00 574.72,47.36 C586.35,48.71 591.95,49.61 592.58,50.25 C592.96,50.62 594.15,50.46 595.23,49.88 C596.77,49.05 597.65,49.25 599.34,50.84 C600.53,51.95 602.69,53.15 604.16,53.51 C605.62,53.87 607.82,55.24 609.05,56.55 C610.28,57.87 611.63,58.73 612.04,58.48 C612.45,58.22 614.29,60.03 616.14,62.48 C619.27,66.64 621.51,68.31 623.20,67.74 C624.47,67.31 631.93,75.30 631.30,76.41 C630.96,77.01 631.06,77.16 631.52,76.74 C631.98,76.32 633.40,76.96 634.68,78.17 C637.14,80.48 637.85,82.62 635.75,81.39 C635.06,80.99 635.37,81.65 636.44,82.86 C637.50,84.08 638.91,84.86 639.57,84.61 C640.22,84.36 642.25,85.70 644.08,87.58 C646.62,90.20 647.12,91.28 646.22,92.18 C645.32,93.08 644.57,92.92 643.02,91.52 C640.66,89.38 640.25,91.11 642.57,93.43 C644.52,95.38 644.77,95.38 646.72,93.43 C648.15,92.00 648.77,92.33 653.64,97.14 C656.59,100.05 659.00,103.26 659.00,104.27 C659.00,105.34 659.46,105.84 660.08,105.45 C661.55,104.54 667.18,110.08 666.53,111.78 C665.62,114.15 667.82,116.75 673.47,119.98 C676.49,121.71 679.26,123.61 679.63,124.22 C680.06,124.90 679.84,125.02 679.05,124.53 C676.54,122.98 681.22,128.93 684.46,131.40 C686.28,132.79 688.05,135.08 688.41,136.50 C688.77,137.94 690.13,139.48 691.51,140.00 C692.91,140.54 695.16,143.10 696.73,145.96 C698.25,148.73 700.29,151.25 701.25,151.56 C702.21,151.88 703.49,153.04 704.08,154.15 C704.68,155.26 706.14,157.29 707.33,158.66 C708.52,160.03 709.55,162.02 709.61,163.08 C709.68,164.13 710.89,165.91 712.30,167.02 C713.72,168.14 715.16,169.92 715.49,170.97 C715.83,172.03 716.96,173.17 718.00,173.50 C719.04,173.83 720.20,175.09 720.56,176.30 C720.93,177.51 722.53,179.71 724.11,181.19 C725.70,182.68 727.00,184.58 727.00,185.42 C727.00,186.26 728.18,187.73 729.62,188.67 C731.06,189.61 733.07,192.32 734.08,194.69 C735.10,197.06 736.55,199.00 737.31,199.00 C738.99,199.00 742.00,202.17 742.00,203.93 C742.00,204.64 743.10,206.08 744.45,207.14 C745.94,208.31 746.68,209.68 746.32,210.60 C745.97,211.52 746.95,213.41 748.76,215.32 C750.42,217.07 752.51,219.96 753.41,221.75 C754.31,223.54 755.45,225.00 755.94,225.00 C756.43,225.00 756.70,226.10 756.55,227.45 C756.41,228.80 756.76,229.81 757.35,229.70 C757.93,229.59 758.43,230.18 758.45,231.00 C758.48,231.82 759.56,232.65 760.85,232.83 C762.94,233.13 763.12,233.53 762.55,236.59 C761.99,239.59 762.21,240.13 764.37,240.95 C765.72,241.46 767.12,242.81 767.48,243.94 C767.84,245.07 768.55,246.00 769.07,246.00 C769.58,246.00 770.00,246.69 770.00,247.53 C770.00,248.37 771.80,250.72 774.00,252.74 C776.75,255.27 778.00,257.25 778.00,259.09 C778.00,260.55 778.74,262.37 779.64,263.11 C781.74,264.86 786.33,272.12 786.33,273.70 C786.33,274.37 786.68,274.70 787.09,274.44 C787.77,274.03 789.11,276.68 788.90,278.00 C788.85,278.27 789.58,280.40 790.50,282.72 C792.14,286.81 792.13,287.02 790.10,289.60 C788.94,291.07 788.00,292.68 788.00,293.18 C788.00,293.68 787.54,294.63 786.98,295.29 C786.42,295.96 784.82,297.85 783.42,299.50 C782.03,301.15 780.25,303.68 779.48,305.13 C777.91,308.06 775.76,309.23 773.50,308.36 C772.67,308.05 772.00,308.28 772.00,308.89 C772.00,309.50 772.48,310.00 773.07,310.00 C773.65,310.00 773.99,311.24 773.82,312.75 C773.57,314.93 772.98,315.50 771.00,315.50 C769.02,315.50 768.43,316.07 768.18,318.25 C767.90,320.73 766.62,321.56 763.77,321.12 C763.36,321.06 762.74,322.25 762.38,323.76 C761.55,327.26 759.17,330.00 756.97,330.00 C755.02,330.00 752.37,332.71 753.36,333.69 C754.35,334.68 750.98,337.93 749.54,337.38 C748.74,337.07 748.04,338.07 747.64,340.06 C747.06,342.94 746.72,343.19 743.91,342.77 C741.49,342.42 740.59,342.78 739.81,344.41 C739.26,345.56 736.75,347.86 734.25,349.53 C731.74,351.19 729.57,353.34 729.43,354.30 C729.13,356.35 725.89,359.18 721.00,361.69 C719.08,362.68 716.69,364.14 715.71,364.94 C714.72,365.74 713.03,366.52 711.96,366.69 C710.38,366.93 710.00,366.40 710.00,363.93 C710.00,362.22 709.58,361.14 709.03,361.48 C708.50,361.81 708.11,363.52 708.17,365.29 C708.38,371.75 701.67,379.27 700.31,374.09 C699.69,371.72 697.77,371.36 696.16,373.31 C695.35,374.29 695.57,375.04 697.04,376.30 C698.12,377.22 699.00,378.43 699.00,378.97 C699.00,379.79 695.24,381.32 692.86,381.46 C692.51,381.48 691.02,382.71 689.54,384.19 C688.06,385.67 686.27,386.66 685.55,386.38 C684.84,386.11 683.98,386.61 683.64,387.49 C683.22,388.60 683.41,388.87 684.26,388.36 C685.24,387.77 685.24,387.94 684.26,389.15 C683.58,389.99 683.31,390.98 683.68,391.34 C684.04,391.70 683.36,392.06 682.17,392.12 C680.97,392.19 679.55,392.36 679.00,392.50 C678.45,392.64 677.33,392.81 676.50,392.88 C675.67,392.94 674.21,393.79 673.24,394.75 C668.42,399.54 661.87,404.15 659.53,404.40 C658.10,404.55 656.40,405.20 655.76,405.84 C655.12,406.48 653.62,407.00 652.42,407.00 C650.42,407.00 646.66,409.98 648.63,410.02 C649.11,410.02 648.90,410.41 648.18,410.87 C647.45,411.33 645.39,411.55 643.60,411.35 C640.76,411.04 640.35,411.28 640.42,413.25 C640.48,415.00 639.87,415.57 637.70,415.82 C635.83,416.04 634.59,416.94 633.98,418.54 C633.45,419.96 631.92,421.22 630.29,421.62 C628.75,422.00 626.22,423.36 624.67,424.66 C623.11,425.95 621.38,426.74 620.83,426.40 C620.29,426.06 618.64,426.91 617.17,428.29 C615.70,429.68 611.80,432.13 608.50,433.74 C599.41,438.20 595.55,440.27 595.00,441.02 C594.72,441.39 592.75,441.97 590.61,442.31 C588.47,442.64 585.70,443.87 584.47,445.03 C583.23,446.19 581.61,447.01 580.86,446.84 C579.12,446.46 569.75,450.94 568.72,452.65 C567.77,454.22 559.44,458.00 556.93,458.00 C555.93,458.00 554.84,458.46 554.49,459.02 C554.14,459.58 553.44,459.77 552.93,459.46 C552.42,459.14 552.00,459.34 552.00,459.90 C552.00,460.46 549.77,461.59 547.04,462.40 C541.54,464.03 532.94,468.68 531.70,470.70 C531.26,471.42 529.91,472.00 528.70,472.00 C527.49,472.00 523.65,473.35 520.16,475.00 C516.67,476.65 512.35,478.00 510.55,478.00 C508.74,478.00 506.13,478.90 504.73,480.00 C503.33,481.10 501.04,482.00 499.65,482.00 C498.26,482.00 496.84,482.45 496.50,483.00 C496.16,483.55 494.84,484.00 493.56,484.00 C491.34,484.00 488.51,486.18 489.48,487.15 C489.74,487.40 488.06,487.72 485.75,487.86 C483.44,488.00 481.30,488.51 480.99,489.01 C480.68,489.52 478.57,489.27 476.15,488.44 C471.15,486.72 469.77,487.22 470.58,490.47 C471.12,492.62 470.86,492.81 467.33,492.81 C461.57,492.80 456.73,494.02 454.50,496.05 C453.40,497.05 450.61,498.08 448.30,498.34 C446.00,498.60 443.63,499.11 443.06,499.46 C441.67,500.32 438.75,501.02 431.50,502.23 C428.20,502.78 423.39,504.08 420.81,505.12 C418.24,506.15 413.94,507.00 411.26,507.00 C408.59,507.00 405.94,507.46 405.37,508.03 C404.80,508.60 400.88,509.45 396.65,509.92 C392.43,510.40 388.37,511.28 387.64,511.88 C385.44,513.71 374.07,515.25 364.27,515.04 C355.35,514.85 345.26,516.74 342.33,519.15 C341.68,519.68 339.54,519.82 337.56,519.45 C335.59,519.08 333.42,519.21 332.74,519.75 ZM 266.00 889.07 C266.00,892.21 265.63,893.00 264.17,893.00 C263.17,893.00 261.33,891.91 260.08,890.58 C258.83,889.26 256.74,887.90 255.43,887.57 C254.12,887.24 250.72,884.17 247.87,880.74 C245.02,877.31 241.47,873.60 239.99,872.50 C237.07,870.33 231.44,864.00 232.43,864.00 C233.54,864.00 229.59,858.62 225.11,854.01 C218.73,847.45 218.00,846.50 218.00,844.78 C218.00,843.93 216.88,842.49 215.50,841.59 C214.12,840.69 213.00,839.06 213.00,837.98 C213.00,836.89 212.48,836.00 211.83,836.00 C211.19,836.00 210.96,835.70 211.33,835.34 C211.69,834.98 210.98,834.18 209.75,833.56 C208.52,832.95 207.35,831.59 207.15,830.55 C206.73,828.33 204.50,825.84 203.68,826.66 C203.37,826.96 202.44,825.59 201.61,823.61 C200.78,821.62 199.60,820.00 198.99,820.00 C198.39,820.00 196.99,817.97 195.90,815.50 C194.80,813.03 193.48,811.00 192.95,811.00 C192.43,811.00 192.00,810.40 192.00,809.66 C192.00,808.92 190.86,807.80 189.46,807.16 C187.54,806.29 186.99,805.37 187.21,803.39 C187.46,801.11 186.29,799.64 183.22,798.39 C183.06,798.32 182.75,797.32 182.53,796.17 C182.31,795.01 180.52,792.46 178.56,790.50 C176.60,788.54 175.00,786.29 175.00,785.50 C175.00,784.71 173.60,783.03 171.90,781.78 C169.03,779.67 167.36,777.23 162.74,768.35 C161.76,766.49 160.06,763.96 158.94,762.74 C154.69,758.06 154.18,757.41 152.12,754.00 C150.96,752.08 150.01,749.58 150.00,748.45 C150.00,747.32 148.39,744.84 146.41,742.95 C142.07,738.77 139.79,734.64 140.20,731.70 C140.43,729.98 140.02,729.53 138.29,729.62 C136.45,729.71 135.56,728.50 133.04,722.44 C131.37,718.42 130.00,714.58 130.00,713.90 C130.00,713.22 129.72,712.95 129.38,713.29 C128.45,714.22 126.64,712.03 124.08,706.89 C122.24,703.19 122.00,701.86 122.89,700.20 C124.48,697.24 124.36,695.46 122.67,696.86 C121.67,697.69 120.81,697.47 119.17,695.94 C117.98,694.83 116.94,693.49 116.88,692.96 C116.62,690.99 116.45,690.42 115.12,687.25 C114.37,685.46 113.38,684.00 112.92,684.00 C111.34,684.00 104.00,672.12 104.00,669.57 C104.00,668.17 103.21,666.10 102.25,664.98 C101.29,663.85 100.48,662.61 100.46,662.22 C100.44,661.82 99.59,659.79 98.57,657.70 C97.55,655.61 96.62,652.91 96.49,651.70 C96.08,647.86 96.01,647.65 95.37,648.30 C94.27,649.40 91.00,647.01 91.00,645.10 C91.00,644.09 90.10,642.13 89.00,640.73 C87.90,639.33 87.00,637.17 87.00,635.92 C87.00,634.68 86.40,632.95 85.67,632.08 C84.29,630.44 81.64,623.51 80.58,618.75 C80.24,617.24 79.49,616.00 78.92,616.00 C78.35,616.00 78.16,615.55 78.50,615.00 C78.84,614.45 78.39,614.00 77.50,614.00 C76.61,614.00 76.17,613.53 76.53,612.96 C76.88,612.38 76.46,610.82 75.59,609.49 C74.71,608.16 74.00,606.00 74.00,604.69 C74.00,603.38 73.16,601.55 72.14,600.63 C71.00,599.59 70.40,597.91 70.58,596.25 C70.74,594.77 70.36,592.93 69.73,592.18 C69.11,591.42 68.46,589.90 68.29,588.80 C68.12,587.69 67.08,585.65 65.99,584.26 C64.90,582.87 64.00,581.04 64.00,580.19 C64.00,579.35 63.33,577.92 62.51,577.01 C61.69,576.11 60.85,573.82 60.65,571.93 C60.43,569.96 59.71,568.50 58.96,568.50 C57.78,568.50 53.24,556.64 53.07,553.12 C53.03,552.37 51.65,549.09 50.00,545.84 C48.35,542.60 47.00,539.44 47.00,538.83 C47.00,538.22 46.25,537.17 45.33,536.50 C43.79,535.37 43.83,535.01 45.83,531.77 C48.37,527.67 48.63,525.53 46.50,526.39 C45.67,526.73 44.27,527.29 43.39,527.65 C42.00,528.21 41.87,527.73 42.46,524.23 C43.17,520.06 42.28,517.26 39.12,513.65 C38.23,512.63 36.97,509.70 36.33,507.15 C35.68,504.59 34.62,500.70 33.97,498.50 C33.31,496.30 32.55,492.48 32.27,490.00 C32.00,487.52 31.32,485.21 30.76,484.86 C27.93,483.08 28.51,466.14 31.70,457.33 C32.53,455.03 32.93,452.69 32.57,452.12 C32.22,451.55 32.60,449.49 33.42,447.54 C34.36,445.28 34.51,444.00 33.83,444.00 C33.09,444.00 33.07,443.61 33.78,442.75 C34.35,442.06 35.34,438.58 35.98,435.00 C36.62,431.42 37.74,427.38 38.47,426.00 C40.52,422.14 42.93,413.23 42.52,411.08 C42.31,410.01 43.03,408.12 44.10,406.88 C45.18,405.63 45.84,404.03 45.56,403.31 C45.29,402.59 45.48,402.00 45.99,402.00 C46.50,402.00 47.43,400.09 48.05,397.75 C48.67,395.41 50.04,392.10 51.09,390.38 C52.14,388.67 53.00,386.30 53.00,385.13 C53.00,383.96 53.45,383.00 54.00,383.00 C54.55,383.00 55.00,381.52 55.00,379.70 C55.00,377.89 55.48,375.92 56.07,375.33 C56.65,374.75 57.35,372.87 57.62,371.16 C58.17,367.68 62.28,359.84 64.53,357.97 C65.34,357.30 66.00,355.97 66.00,355.00 C66.00,354.03 66.68,352.68 67.50,352.00 C68.32,351.32 69.00,349.75 69.00,348.53 C69.00,345.69 72.40,342.56 74.58,343.39 C75.93,343.91 76.11,343.60 75.54,341.76 C73.82,336.20 73.90,335.12 76.37,331.21 C77.77,328.99 79.35,326.90 79.88,326.57 C80.41,326.24 81.61,323.62 82.55,320.74 C83.49,317.86 84.78,314.83 85.43,314.00 C86.07,313.17 87.48,310.77 88.55,308.65 C89.62,306.54 91.42,303.80 92.55,302.56 C93.68,301.33 94.46,299.88 94.28,299.34 C94.10,298.80 95.54,296.92 97.48,295.16 C99.56,293.26 101.00,291.01 101.00,289.65 C101.00,288.38 102.09,286.33 103.42,285.08 C104.75,283.83 106.38,281.50 107.04,279.90 C107.70,278.31 108.66,277.00 109.18,277.00 C109.70,277.00 109.89,276.62 109.60,276.16 C109.32,275.70 110.40,273.79 112.00,271.91 C113.61,270.04 114.94,267.54 114.96,266.36 C114.98,265.18 115.79,263.37 116.75,262.32 C117.71,261.28 118.41,260.60 118.30,260.83 C117.79,261.86 121.21,264.13 122.53,263.63 C124.69,262.80 124.33,261.45 121.45,259.56 L 118.91 257.89 L 123.45 252.84 C125.95,250.06 128.00,247.36 128.00,246.83 C128.00,246.31 128.40,246.13 128.90,246.44 C129.39,246.74 130.06,246.29 130.39,245.43 C130.72,244.56 131.50,244.19 132.15,244.59 C132.87,245.04 133.04,244.87 132.60,244.15 C132.20,243.52 132.36,243.00 132.94,243.00 C133.52,243.00 134.00,242.27 134.00,241.37 C134.00,240.48 135.59,237.98 137.53,235.83 C139.48,233.68 140.84,231.55 140.57,231.11 C140.29,230.66 141.14,229.80 142.46,229.20 C144.16,228.42 144.96,227.14 145.18,224.81 C145.59,220.53 149.00,219.41 149.00,223.55 C149.00,225.04 150.29,229.01 151.87,232.38 C153.45,235.74 155.31,240.92 156.00,243.88 C156.68,246.83 157.87,250.43 158.62,251.88 C159.37,253.32 160.29,256.08 160.65,258.00 C161.01,259.92 161.98,261.99 162.80,262.59 C163.91,263.41 164.08,264.44 163.46,266.59 C162.07,271.47 162.19,273.03 164.04,274.02 C165.79,274.96 169.35,283.88 170.93,291.28 C171.38,293.36 172.42,295.83 173.26,296.78 C174.65,298.36 175.19,300.05 176.49,306.93 C176.75,308.26 177.30,309.61 177.73,309.93 C178.47,310.48 179.10,313.34 179.39,317.50 C179.48,318.79 180.14,319.40 181.24,319.21 C182.39,319.02 183.17,319.84 183.64,321.71 C184.02,323.25 185.32,326.30 186.53,328.50 C187.74,330.70 189.05,334.30 189.44,336.50 C189.83,338.70 190.79,341.50 191.58,342.73 C192.37,343.96 193.11,346.09 193.23,347.48 C193.34,348.87 194.00,350.00 194.68,350.00 C196.41,350.00 198.13,353.51 197.37,355.48 C196.99,356.47 197.58,357.89 198.87,359.09 C200.79,360.88 201.52,362.94 201.08,365.36 C201.00,365.83 201.33,366.73 201.83,367.36 C202.32,367.98 203.02,369.74 203.38,371.25 C203.74,372.76 204.47,374.00 205.00,374.00 C206.03,374.00 211.54,383.99 211.20,385.25 C211.09,385.66 211.42,386.00 211.94,386.00 C212.46,386.00 212.70,386.97 212.47,388.16 C212.21,389.53 212.95,391.23 214.50,392.77 C215.85,394.12 217.23,396.86 217.56,398.86 C218.52,404.53 218.92,405.60 221.03,408.03 C222.11,409.28 223.00,411.10 223.00,412.07 C223.00,414.70 226.48,422.33 228.42,423.94 C229.70,425.00 229.97,426.24 229.50,429.01 C228.94,432.34 229.08,432.66 231.13,432.59 C232.85,432.52 233.54,433.21 234.03,435.50 C234.59,438.13 237.06,443.33 239.95,448.00 C240.46,448.83 241.14,450.72 241.45,452.21 C241.85,454.09 242.48,454.75 243.51,454.36 C244.41,454.01 245.00,454.36 245.00,455.24 C245.00,456.05 246.12,458.82 247.50,461.40 C248.88,463.99 250.00,467.15 250.00,468.43 C250.00,469.71 250.65,471.30 251.45,471.96 C253.47,473.63 258.98,483.59 259.08,485.73 C259.12,486.71 259.38,486.97 259.64,486.31 C260.41,484.44 265.00,488.99 265.00,491.62 C265.00,492.86 265.45,494.16 266.00,494.50 C266.55,494.84 267.00,496.19 267.00,497.49 C267.00,499.00 268.12,500.66 270.09,502.07 C272.71,503.93 273.13,504.79 272.79,507.63 C272.51,510.03 272.85,511.14 273.95,511.49 C276.10,512.19 280.00,518.17 280.00,520.76 C280.00,521.94 280.61,523.26 281.36,523.70 C282.12,524.14 283.47,525.95 284.37,527.72 C285.28,529.49 287.03,531.47 288.26,532.12 C291.06,533.59 292.12,535.12 291.50,536.80 C291.24,537.52 291.41,537.87 291.88,537.58 C292.35,537.28 293.58,538.04 294.62,539.26 C295.88,540.73 295.99,541.14 294.95,540.48 C293.76,539.72 293.78,539.85 295.04,541.03 C295.94,541.87 296.57,543.31 296.44,544.23 C296.30,545.15 297.50,547.27 299.10,548.94 C302.30,552.29 302.69,554.16 300.65,556.21 C299.21,557.65 298.31,561.33 297.41,569.50 C296.89,574.23 296.39,575.95 293.98,581.25 C293.41,582.49 292.76,585.08 292.52,587.00 C291.60,594.41 290.79,598.01 289.91,598.55 C289.41,598.86 289.00,600.89 289.00,603.06 C289.00,605.23 288.12,608.64 287.06,610.64 C285.65,613.26 285.11,616.24 285.11,621.41 C285.11,625.97 284.54,629.63 283.54,631.53 C282.34,633.81 282.12,636.08 282.62,641.31 C283.22,647.61 283.10,648.24 281.03,649.69 C279.19,650.98 278.88,651.92 279.32,654.88 C279.61,656.87 279.45,663.67 278.97,670.00 C278.14,680.71 277.62,684.67 275.14,699.00 C274.62,702.03 274.42,706.98 274.71,710.00 C275.08,713.89 274.74,716.68 273.55,719.50 C271.52,724.33 269.69,744.41 270.60,751.86 C271.09,755.88 270.91,757.43 269.89,758.07 C268.92,758.67 268.51,761.21 268.49,766.71 C268.47,770.99 268.11,775.06 267.67,775.75 C266.82,777.09 265.95,805.27 266.25,821.50 C266.49,834.69 266.32,839.72 265.48,844.26 C265.07,846.44 265.21,848.55 265.80,849.26 C266.40,849.99 266.79,856.84 266.75,865.95 C266.70,876.75 267.03,881.51 267.83,881.78 C268.62,882.04 268.52,882.63 267.49,883.65 C266.67,884.47 266.00,886.91 266.00,889.07 ZM 677.57 138.43 C678.44,139.29 680.35,139.99 681.82,139.97 L 684.50 139.93 L 682.20 138.02 C680.94,136.96 679.04,135.06 677.98,133.80 L 676.07 131.50 L 676.03 134.18 C676.01,135.65 676.71,137.56 677.57,138.43 ZM 227.00 171.12 C227.00,172.69 233.03,172.09 233.65,170.46 C233.98,169.61 233.98,168.65 233.66,168.32 C232.87,167.53 227.00,170.00 227.00,171.12 ZM 329.00 583.61 C329.00,584.38 329.37,585.00 329.83,585.00 C330.95,585.00 333.07,577.92 332.32,576.71 C331.69,575.69 329.00,581.28 329.00,583.61 ZM 265.00 424.26 C265.00,426.72 266.63,425.64 267.25,422.76 C267.52,421.52 268.07,419.71 268.48,418.75 C268.88,417.79 268.83,417.00 268.36,417.01 C267.24,417.02 265.00,421.86 265.00,424.26 ZM 196.39 376.58 C197.02,378.23 199.13,378.11 199.70,376.40 C199.88,375.86 199.38,374.54 198.58,373.46 C197.24,371.64 197.10,371.62 196.46,373.25 C196.09,374.21 196.06,375.71 196.39,376.58 ZM 38.55 435.07 C38.90,435.64 39.70,435.93 40.34,435.72 C41.89,435.20 42.44,432.04 41.19,430.79 C39.98,429.58 37.57,433.49 38.55,435.07 ZM 899.68 522.35 C900.06,522.73 900.79,522.61 901.32,522.08 C902.44,520.96 901.51,518.00 900.03,518.00 C898.88,518.00 898.62,521.28 899.68,522.35 ZM 550.00 452.00 C550.00,452.55 551.69,452.99 553.75,452.98 C556.54,452.97 557.12,452.72 556.00,452.00 C554.03,450.73 550.00,450.73 550.00,452.00 ZM 415.00 500.00 C415.00,500.55 416.35,501.00 418.00,501.00 C419.65,501.00 421.00,500.55 421.00,500.00 C421.00,499.45 419.65,499.00 418.00,499.00 C416.35,499.00 415.00,499.45 415.00,500.00 ZM 110.42 674.62 C111.16,675.41 111.71,675.45 112.16,674.73 C112.93,673.50 112.14,671.00 110.98,671.00 C109.64,671.00 109.27,673.38 110.42,674.62 ZM 797.17 341.34 C796.92,342.68 797.32,343.08 798.66,342.83 C800.85,342.41 801.16,339.50 799.01,339.50 C798.20,339.50 797.37,340.33 797.17,341.34 ZM 869.00 438.92 C869.00,440.14 869.65,441.00 870.57,441.00 C871.50,441.00 872.01,440.32 871.82,439.33 C871.34,436.82 869.00,436.48 869.00,438.92 ZM 313.35 498.46 C314.09,500.40 316.00,500.48 316.00,498.56 C316.00,496.97 314.19,495.48 313.31,496.36 C313.00,496.66 313.02,497.61 313.35,498.46 ZM 73.68 585.60 C74.48,587.68 76.00,587.29 76.00,585.00 C76.00,583.90 75.62,583.00 75.17,583.00 C73.76,583.00 73.11,584.13 73.68,585.60 ZM 170.50 774.00 C170.84,774.55 171.54,775.00 172.06,775.00 C173.28,775.00 173.28,772.29 172.07,771.54 C170.88,770.81 169.68,772.68 170.50,774.00 ZM 447.29 536.62 C447.06,537.33 447.86,537.56 449.46,537.25 C450.86,536.99 452.00,536.34 452.00,535.81 C452.00,534.50 447.75,535.23 447.29,536.62 ZM 57.00 392.27 C57.00,394.29 59.52,392.16 59.78,389.92 C60.05,387.58 60.01,387.56 58.53,389.44 C57.69,390.51 57.00,391.78 57.00,392.27 ZM 260.00 884.50 C260.00,885.46 260.65,886.01 261.55,885.82 C263.72,885.37 263.86,883.60 261.75,883.19 C260.66,882.98 260.00,883.47 260.00,884.50 ZM 809.00 335.58 C809.00,337.35 811.15,337.04 811.77,335.19 C811.99,334.53 811.45,334.00 810.58,334.00 C809.71,334.00 809.00,334.71 809.00,335.58 ZM 190.00 202.58 C190.00,203.45 190.53,203.99 191.19,203.77 C193.04,203.15 193.35,201.00 191.58,201.00 C190.71,201.00 190.00,201.71 190.00,202.58 ZM 778.00 367.50 C778.00,368.33 778.45,369.00 779.00,369.00 C779.55,369.00 780.00,368.33 780.00,367.50 C780.00,366.67 779.55,366.00 779.00,366.00 C778.45,366.00 778.00,366.67 778.00,367.50 ZM 276.00 526.50 C276.00,527.33 276.45,528.00 277.00,528.00 C277.55,528.00 278.00,527.33 278.00,526.50 C278.00,525.67 277.55,525.00 277.00,525.00 C276.45,525.00 276.00,525.67 276.00,526.50 ZM 180.73 329.40 C181.13,329.80 181.63,329.61 181.84,328.98 C182.05,328.34 181.72,327.32 181.11,326.71 C180.30,325.90 180.00,326.01 180.00,327.13 C180.00,327.98 180.33,328.99 180.73,329.40 ZM 151.00 243.06 C151.00,243.58 151.45,244.00 152.00,244.00 C152.55,244.00 153.00,243.30 153.00,242.44 C153.00,241.58 152.55,241.16 152.00,241.50 C151.45,241.84 151.00,242.54 151.00,243.06 ZM 782.50 363.00 C782.16,363.55 782.58,364.00 783.44,364.00 C784.30,364.00 785.00,363.55 785.00,363.00 C785.00,362.45 784.58,362.00 784.06,362.00 C783.54,362.00 782.84,362.45 782.50,363.00 ZM 643.98 90.48 C645.42,92.21 646.00,92.39 646.00,91.11 C646.00,90.62 645.26,89.93 644.36,89.58 C642.99,89.06 642.92,89.20 643.98,90.48 Z" fill="rgb(18,18,140)"/>
<path d="M 268.63 894.33 C268.09,896.47 267.38,897.00 265.00,897.00 C262.53,897.00 259.64,894.59 247.27,882.25 C222.93,857.96 197.36,823.86 145.86,747.00 C126.52,718.15 84.90,639.19 72.92,608.64 C70.08,601.41 63.71,586.05 58.76,574.50 C44.61,541.51 26.00,484.26 26.00,473.75 C26.00,469.92 27.10,464.58 33.60,436.82 C34.97,430.94 38.56,418.79 41.56,409.82 C62.22,348.08 93.73,288.94 136.72,231.25 C147.17,217.22 151.00,213.54 151.00,217.53 C151.00,219.66 157.49,241.70 161.15,252.00 C162.81,256.67 167.93,271.66 172.53,285.30 C177.12,298.94 182.89,314.69 185.35,320.30 C187.80,325.91 193.86,339.95 198.82,351.50 C206.94,370.46 217.91,394.47 236.72,434.50 C244.93,451.96 258.87,478.31 264.65,487.30 C267.06,491.04 270.55,497.12 272.41,500.80 C277.38,510.65 284.58,522.61 289.98,530.00 C292.59,533.58 296.48,539.20 298.61,542.50 C300.75,545.80 302.80,548.73 303.17,549.01 C304.02,549.66 301.92,561.94 299.14,572.50 C292.22,598.83 287.71,620.66 285.50,638.50 C284.61,645.65 283.27,655.33 282.52,660.00 C281.77,664.67 280.87,672.10 280.53,676.50 C280.19,680.90 279.27,689.45 278.50,695.50 C271.82,747.66 267.38,826.85 268.68,870.58 C269.02,882.17 269.00,892.86 268.63,894.33 ZM 266.00 889.07 C266.00,886.91 266.67,884.47 267.49,883.65 C268.52,882.63 268.62,882.04 267.83,881.78 C267.03,881.51 266.70,876.75 266.75,865.95 C266.79,856.84 266.40,849.99 265.80,849.26 C265.21,848.55 265.07,846.44 265.48,844.26 C266.32,839.72 266.49,834.69 266.25,821.50 C265.95,805.27 266.82,777.09 267.67,775.75 C268.11,775.06 268.47,770.99 268.49,766.71 C268.51,761.21 268.92,758.67 269.89,758.07 C270.91,757.43 271.09,755.88 270.60,751.86 C269.69,744.41 271.52,724.33 273.55,719.50 C274.74,716.68 275.08,713.89 274.71,710.00 C274.42,706.98 274.62,702.03 275.14,699.00 C277.62,684.67 278.14,680.71 278.97,670.00 C279.45,663.67 279.61,656.87 279.32,654.88 C278.88,651.92 279.19,650.98 281.03,649.69 C283.10,648.24 283.22,647.61 282.62,641.31 C282.12,636.08 282.34,633.81 283.54,631.53 C284.54,629.63 285.11,625.97 285.11,621.41 C285.11,616.24 285.65,613.26 287.06,610.64 C288.12,608.64 289.00,605.23 289.00,603.06 C289.00,600.89 289.41,598.86 289.91,598.55 C290.79,598.01 291.60,594.41 292.52,587.00 C292.76,585.08 293.41,582.49 293.98,581.25 C296.39,575.95 296.89,574.23 297.41,569.50 C298.31,561.33 299.21,557.65 300.65,556.21 C302.69,554.16 302.30,552.29 299.10,548.94 C297.50,547.27 296.30,545.15 296.44,544.23 C296.57,543.31 295.94,541.87 295.04,541.03 C293.78,539.85 293.76,539.72 294.95,540.48 C295.99,541.14 295.88,540.73 294.62,539.26 C293.58,538.04 292.35,537.28 291.88,537.58 C291.41,537.87 291.24,537.52 291.50,536.80 C292.12,535.12 291.06,533.59 288.26,532.12 C287.03,531.47 285.28,529.49 284.37,527.72 C283.47,525.95 282.12,524.14 281.36,523.70 C280.61,523.26 280.00,521.94 280.00,520.76 C280.00,518.17 276.10,512.19 273.95,511.49 C272.85,511.14 272.51,510.03 272.79,507.63 C273.13,504.79 272.71,503.93 270.09,502.07 C268.12,500.66 267.00,499.00 267.00,497.49 C267.00,496.19 266.55,494.84 266.00,494.50 C265.45,494.16 265.00,492.86 265.00,491.62 C265.00,488.99 260.41,484.44 259.64,486.31 C259.38,486.97 259.12,486.71 259.08,485.73 C258.98,483.59 253.47,473.63 251.45,471.96 C250.65,471.30 250.00,469.71 250.00,468.43 C250.00,467.15 248.88,463.99 247.50,461.40 C246.12,458.82 245.00,456.05 245.00,455.24 C245.00,454.36 244.41,454.01 243.51,454.36 C242.48,454.75 241.85,454.09 241.45,452.21 C241.14,450.72 240.46,448.83 239.95,448.00 C237.06,443.33 234.59,438.13 234.03,435.50 C233.54,433.21 232.85,432.52 231.13,432.59 C229.08,432.66 228.94,432.34 229.50,429.01 C229.97,426.24 229.70,425.00 228.42,423.94 C226.48,422.33 223.00,414.70 223.00,412.07 C223.00,411.10 222.11,409.28 221.03,408.03 C218.92,405.60 218.52,404.53 217.56,398.86 C217.23,396.86 215.85,394.12 214.50,392.77 C212.95,391.23 212.21,389.53 212.47,388.16 C212.70,386.97 212.46,386.00 211.94,386.00 C211.42,386.00 211.09,385.66 211.20,385.25 C211.54,383.99 206.03,374.00 205.00,374.00 C204.47,374.00 203.74,372.76 203.38,371.25 C203.02,369.74 202.32,367.98 201.83,367.36 C201.33,366.73 201.00,365.83 201.08,365.36 C201.52,362.94 200.79,360.88 198.87,359.09 C197.58,357.89 196.99,356.47 197.37,355.48 C198.13,353.51 196.41,350.00 194.68,350.00 C194.00,350.00 193.34,348.87 193.23,347.48 C193.11,346.09 192.37,343.96 191.58,342.73 C190.79,341.50 189.83,338.70 189.44,336.50 C189.05,334.30 187.74,330.70 186.53,328.50 C185.32,326.30 184.02,323.25 183.64,321.71 C183.17,319.84 182.39,319.02 181.24,319.21 C180.14,319.40 179.48,318.79 179.39,317.50 C179.10,313.34 178.47,310.48 177.73,309.93 C177.30,309.61 176.75,308.26 176.49,306.93 C175.19,300.05 174.65,298.36 173.26,296.78 C172.42,295.83 171.38,293.36 170.93,291.28 C169.35,283.88 165.79,274.96 164.04,274.02 C162.19,273.03 162.07,271.47 163.46,266.59 C164.08,264.44 163.91,263.41 162.80,262.59 C161.98,261.99 161.01,259.92 160.65,258.00 C160.29,256.08 159.37,253.32 158.62,251.88 C157.87,250.43 156.68,246.83 156.00,243.88 C155.31,240.92 153.45,235.74 151.87,232.38 C150.29,229.01 149.00,225.04 149.00,223.55 C149.00,219.41 145.59,220.53 145.18,224.81 C144.96,227.14 144.16,228.42 142.46,229.20 C141.14,229.80 140.29,230.66 140.57,231.11 C140.84,231.55 139.48,233.68 137.53,235.83 C135.59,237.98 134.00,240.48 134.00,241.37 C134.00,242.27 133.52,243.00 132.94,243.00 C132.36,243.00 132.20,243.52 132.60,244.15 C133.04,244.87 132.87,245.04 132.15,244.59 C131.50,244.19 130.72,244.56 130.39,245.43 C130.06,246.29 129.39,246.74 128.90,246.44 C128.40,246.13 128.00,246.31 128.00,246.83 C128.00,247.36 125.95,250.06 123.45,252.84 L 118.91 257.89 L 121.45 259.56 C124.33,261.45 124.69,262.80 122.53,263.63 C121.21,264.13 117.79,261.86 118.30,260.83 C118.41,260.60 117.71,261.28 116.75,262.32 C115.79,263.37 114.98,265.18 114.96,266.36 C114.94,267.54 113.61,270.04 112.00,271.91 C110.40,273.79 109.32,275.70 109.60,276.16 C109.89,276.62 109.70,277.00 109.18,277.00 C108.66,277.00 107.70,278.31 107.04,279.90 C106.38,281.50 104.75,283.83 103.42,285.08 C102.09,286.33 101.00,288.38 101.00,289.65 C101.00,291.01 99.56,293.26 97.48,295.16 C95.54,296.92 94.10,298.80 94.28,299.34 C94.46,299.88 93.68,301.33 92.55,302.56 C91.42,303.80 89.62,306.54 88.55,308.65 C87.48,310.77 86.07,313.17 85.43,314.00 C84.78,314.83 83.49,317.86 82.55,320.74 C81.61,323.62 80.41,326.24 79.88,326.57 C79.35,326.90 77.77,328.99 76.37,331.21 C73.90,335.12 73.82,336.20 75.54,341.76 C76.11,343.60 75.93,343.91 74.58,343.39 C72.40,342.56 69.00,345.69 69.00,348.53 C69.00,349.75 68.32,351.32 67.50,352.00 C66.68,352.68 66.00,354.03 66.00,355.00 C66.00,355.97 65.34,357.30 64.53,357.97 C62.28,359.84 58.17,367.68 57.62,371.16 C57.35,372.87 56.65,374.75 56.07,375.33 C55.48,375.92 55.00,377.89 55.00,379.70 C55.00,381.52 54.55,383.00 54.00,383.00 C53.45,383.00 53.00,383.96 53.00,385.13 C53.00,386.30 52.14,388.67 51.09,390.38 C50.04,392.10 48.67,395.41 48.05,397.75 C47.43,400.09 46.50,402.00 45.99,402.00 C45.48,402.00 45.29,402.59 45.56,403.31 C45.84,404.03 45.18,405.63 44.10,406.88 C43.03,408.12 42.31,410.01 42.52,411.08 C42.93,413.23 40.52,422.14 38.47,426.00 C37.74,427.38 36.62,431.42 35.98,435.00 C35.34,438.58 34.35,442.06 33.78,442.75 C33.07,443.61 33.09,444.00 33.83,444.00 C34.51,444.00 34.36,445.28 33.42,447.54 C32.60,449.49 32.22,451.55 32.57,452.12 C32.93,452.69 32.53,455.03 31.70,457.33 C28.51,466.14 27.93,483.08 30.76,484.86 C31.32,485.21 32.00,487.52 32.27,490.00 C32.55,492.48 33.31,496.30 33.97,498.50 C34.62,500.70 35.68,504.59 36.33,507.15 C36.97,509.70 38.23,512.63 39.12,513.65 C42.28,517.26 43.17,520.06 42.46,524.23 C41.87,527.73 42.00,528.21 43.39,527.65 C44.27,527.29 45.67,526.73 46.50,526.39 C48.63,525.53 48.37,527.67 45.83,531.77 C43.83,535.01 43.79,535.37 45.33,536.50 C46.25,537.17 47.00,538.22 47.00,538.83 C47.00,539.44 48.35,542.60 50.00,545.84 C51.65,549.09 53.03,552.37 53.07,553.12 C53.24,556.64 57.78,568.50 58.96,568.50 C59.71,568.50 60.43,569.96 60.65,571.93 C60.85,573.82 61.69,576.11 62.51,577.01 C63.33,577.92 64.00,579.35 64.00,580.19 C64.00,581.04 64.90,582.87 65.99,584.26 C67.08,585.65 68.12,587.69 68.29,588.80 C68.46,589.90 69.11,591.42 69.73,592.18 C70.36,592.93 70.74,594.77 70.58,596.25 C70.40,597.91 71.00,599.59 72.14,600.63 C73.16,601.55 74.00,603.38 74.00,604.69 C74.00,606.00 74.71,608.16 75.59,609.49 C76.46,610.82 76.88,612.38 76.53,612.96 C76.17,613.53 76.61,614.00 77.50,614.00 C78.39,614.00 78.84,614.45 78.50,615.00 C78.16,615.55 78.35,616.00 78.92,616.00 C79.49,616.00 80.24,617.24 80.58,618.75 C81.64,623.51 84.29,630.44 85.67,632.08 C86.40,632.95 87.00,634.68 87.00,635.92 C87.00,637.17 87.90,639.33 89.00,640.73 C90.10,642.13 91.00,644.09 91.00,645.10 C91.00,647.01 94.27,649.40 95.37,648.30 C96.01,647.65 96.08,647.86 96.49,651.70 C96.62,652.91 97.55,655.61 98.57,657.70 C99.59,659.79 100.44,661.82 100.46,662.22 C100.48,662.61 101.29,663.85 102.25,664.98 C103.21,666.10 104.00,668.17 104.00,669.57 C104.00,672.12 111.34,684.00 112.92,684.00 C113.38,684.00 114.37,685.46 115.12,687.25 C116.45,690.42 116.62,690.99 116.88,692.96 C116.94,693.49 117.98,694.83 119.17,695.94 C120.81,697.47 121.67,697.69 122.67,696.86 C124.36,695.46 124.48,697.24 122.89,700.20 C122.00,701.86 122.24,703.19 124.08,706.89 C126.64,712.03 128.45,714.22 129.38,713.29 C129.72,712.95 130.00,713.22 130.00,713.90 C130.00,714.58 131.37,718.42 133.04,722.44 C135.56,728.50 136.45,729.71 138.29,729.62 C140.02,729.53 140.43,729.98 140.20,731.70 C139.79,734.64 142.07,738.77 146.41,742.95 C148.39,744.84 150.00,747.32 150.00,748.45 C150.01,749.58 150.96,752.08 152.12,754.00 C154.18,757.41 154.69,758.06 158.94,762.74 C160.06,763.96 161.76,766.49 162.74,768.35 C167.36,777.23 169.03,779.67 171.90,781.78 C173.60,783.03 175.00,784.71 175.00,785.50 C175.00,786.29 176.60,788.54 178.56,790.50 C180.52,792.46 182.31,795.01 182.53,796.17 C182.75,797.32 183.06,798.32 183.22,798.39 C186.29,799.64 187.46,801.11 187.21,803.39 C186.99,805.37 187.54,806.29 189.46,807.16 C190.86,807.80 192.00,808.92 192.00,809.66 C192.00,810.40 192.43,811.00 192.95,811.00 C193.48,811.00 194.80,813.03 195.90,815.50 C196.99,817.97 198.39,820.00 198.99,820.00 C199.60,820.00 200.78,821.62 201.61,823.61 C202.44,825.59 203.37,826.96 203.68,826.66 C204.50,825.84 206.73,828.33 207.15,830.55 C207.35,831.59 208.52,832.95 209.75,833.56 C210.98,834.18 211.69,834.98 211.33,835.34 C210.96,835.70 211.19,836.00 211.83,836.00 C212.48,836.00 213.00,836.89 213.00,837.98 C213.00,839.06 214.12,840.69 215.50,841.59 C216.88,842.49 218.00,843.93 218.00,844.78 C218.00,846.50 218.73,847.45 225.11,854.01 C229.59,858.62 233.54,864.00 232.43,864.00 C231.44,864.00 237.07,870.33 239.99,872.50 C241.47,873.60 245.02,877.31 247.87,880.74 C250.72,884.17 254.12,887.24 255.43,887.57 C256.74,887.90 258.83,889.26 260.08,890.58 C261.33,891.91 263.17,893.00 264.17,893.00 C265.63,893.00 266.00,892.21 266.00,889.07 ZM 332.74 519.75 C333.42,519.21 335.59,519.08 337.56,519.45 C339.54,519.82 341.68,519.68 342.33,519.15 C345.26,516.74 355.35,514.85 364.27,515.04 C374.07,515.25 385.44,513.71 387.64,511.88 C388.37,511.28 392.43,510.40 396.65,509.92 C400.88,509.45 404.80,508.60 405.37,508.03 C405.94,507.46 408.59,507.00 411.26,507.00 C413.94,507.00 418.24,506.15 420.81,505.12 C423.39,504.08 428.20,502.78 431.50,502.23 C438.75,501.02 441.67,500.32 443.06,499.46 C443.63,499.11 446.00,498.60 448.30,498.34 C450.61,498.08 453.40,497.05 454.50,496.05 C456.73,494.02 461.57,492.80 467.33,492.81 C470.86,492.81 471.12,492.62 470.58,490.47 C469.77,487.22 471.15,486.72 476.15,488.44 C478.57,489.27 480.68,489.52 480.99,489.01 C481.30,488.51 483.44,488.00 485.75,487.86 C488.06,487.72 489.74,487.40 489.48,487.15 C488.51,486.18 491.34,484.00 493.56,484.00 C494.84,484.00 496.16,483.55 496.50,483.00 C496.84,482.45 498.26,482.00 499.65,482.00 C501.04,482.00 503.33,481.10 504.73,480.00 C506.13,478.90 508.74,478.00 510.55,478.00 C512.35,478.00 516.67,476.65 520.16,475.00 C523.65,473.35 527.49,472.00 528.70,472.00 C529.91,472.00 531.26,471.42 531.70,470.70 C532.94,468.68 541.54,464.03 547.04,462.40 C549.77,461.59 552.00,460.46 552.00,459.90 C552.00,459.34 552.42,459.14 552.93,459.46 C553.44,459.77 554.14,459.58 554.49,459.02 C554.84,458.46 555.93,458.00 556.93,458.00 C559.44,458.00 567.77,454.22 568.72,452.65 C569.75,450.94 579.12,446.46 580.86,446.84 C581.61,447.01 583.23,446.19 584.47,445.03 C585.70,443.87 588.47,442.64 590.61,442.31 C592.75,441.97 594.72,441.39 595.00,441.02 C595.55,440.27 599.41,438.20 608.50,433.74 C611.80,432.13 615.70,429.68 617.17,428.29 C618.64,426.91 620.29,426.06 620.83,426.40 C621.38,426.74 623.11,425.95 624.67,424.66 C626.22,423.36 628.75,422.00 630.29,421.62 C631.92,421.22 633.45,419.96 633.98,418.54 C634.59,416.94 635.83,416.04 637.70,415.82 C639.87,415.57 640.48,415.00 640.42,413.25 C640.35,411.28 640.76,411.04 643.60,411.35 C645.39,411.55 647.45,411.33 648.18,410.87 C648.90,410.41 649.11,410.02 648.63,410.02 C646.66,409.98 650.42,407.00 652.42,407.00 C653.62,407.00 655.12,406.48 655.76,405.84 C656.40,405.20 658.10,404.55 659.53,404.40 C661.87,404.15 668.42,399.54 673.24,394.75 C674.21,393.79 675.67,392.94 676.50,392.88 C677.33,392.81 678.45,392.64 679.00,392.50 C679.55,392.36 680.97,392.19 682.17,392.12 C682.35,392.11 682.51,392.10 682.67,392.08 C672.54,398.90 661.69,405.54 643.00,416.68 C601.62,441.37 533.97,473.25 498.00,485.01 C491.67,487.08 483.18,489.97 479.12,491.44 C454.60,500.30 377.06,517.92 349.00,521.01 C331.67,522.92 321.68,523.19 319.35,521.79 C309.00,515.57 263.07,439.02 247.50,402.00 C246.00,398.42 240.58,386.50 235.47,375.50 C230.35,364.50 225.23,353.14 224.10,350.25 C222.96,347.37 220.69,342.35 219.06,339.11 C215.54,332.15 200.48,293.79 191.53,269.00 C183.05,245.51 176.07,223.34 173.90,213.00 L 172.12 204.50 L 174.90 201.00 C180.30,194.20 205.91,174.05 221.50,164.33 C270.96,133.50 355.00,96.90 417.36,79.02 C422.94,77.43 433.80,74.29 441.50,72.05 C457.96,67.27 499.21,56.99 513.50,54.11 C560.61,44.63 590.81,43.33 604.45,50.20 C610.73,53.38 617.68,59.56 642.33,83.93 C678.74,119.93 692.16,135.16 723.57,176.24 C749.07,209.57 775.24,248.11 790.37,274.60 C795.00,282.69 795.83,285.37 794.06,286.46 C793.54,286.79 791.27,290.39 789.02,294.46 C775.88,318.27 754.28,339.43 707.72,374.11 C698.14,381.25 691.05,386.40 683.71,391.38 C683.70,391.36 683.69,391.35 683.68,391.34 C683.31,390.98 683.58,389.99 684.26,389.15 C685.24,387.94 685.24,387.77 684.26,388.36 C683.41,388.87 683.22,388.60 683.64,387.49 C683.98,386.61 684.84,386.11 685.55,386.38 C686.27,386.66 688.06,385.67 689.54,384.19 C691.02,382.71 692.51,381.48 692.86,381.46 C695.24,381.32 699.00,379.79 699.00,378.97 C699.00,378.43 698.12,377.22 697.04,376.30 C695.57,375.04 695.35,374.29 696.16,373.31 C697.77,371.36 699.69,371.72 700.31,374.09 C701.67,379.27 708.38,371.75 708.17,365.29 C708.11,363.52 708.50,361.81 709.03,361.48 C709.58,361.14 710.00,362.22 710.00,363.93 C710.00,366.40 710.38,366.93 711.96,366.69 C713.03,366.52 714.72,365.74 715.71,364.94 C716.69,364.14 719.08,362.68 721.00,361.69 C725.89,359.18 729.13,356.35 729.43,354.30 C729.57,353.34 731.74,351.19 734.25,349.53 C736.75,347.86 739.26,345.56 739.81,344.41 C740.59,342.78 741.49,342.42 743.91,342.77 C746.72,343.19 747.06,342.94 747.64,340.06 C748.04,338.07 748.74,337.07 749.54,337.38 C750.98,337.93 754.35,334.68 753.36,333.69 C752.37,332.71 755.02,330.00 756.97,330.00 C759.17,330.00 761.55,327.26 762.38,323.76 C762.74,322.25 763.36,321.06 763.77,321.12 C766.62,321.56 767.90,320.73 768.18,318.25 C768.43,316.07 769.02,315.50 771.00,315.50 C772.98,315.50 773.57,314.93 773.82,312.75 C773.99,311.24 773.65,310.00 773.07,310.00 C772.48,310.00 772.00,309.50 772.00,308.89 C772.00,308.28 772.67,308.05 773.50,308.36 C775.76,309.23 777.91,308.06 779.48,305.13 C780.25,303.68 782.03,301.15 783.42,299.50 C784.82,297.85 786.42,295.96 786.98,295.29 C787.54,294.63 788.00,293.68 788.00,293.18 C788.00,292.68 788.94,291.07 790.10,289.60 C792.13,287.02 792.14,286.81 790.50,282.72 C789.58,280.40 788.85,278.27 788.90,278.00 C789.11,276.68 787.77,274.03 787.09,274.44 C786.68,274.70 786.33,274.37 786.33,273.70 C786.33,272.12 781.74,264.86 779.64,263.11 C778.74,262.37 778.00,260.55 778.00,259.09 C778.00,257.25 776.75,255.27 774.00,252.74 C771.80,250.72 770.00,248.37 770.00,247.53 C770.00,246.69 769.58,246.00 769.07,246.00 C768.55,246.00 767.84,245.07 767.48,243.94 C767.12,242.81 765.72,241.46 764.37,240.95 C762.21,240.13 761.99,239.59 762.55,236.59 C763.12,233.53 762.94,233.13 760.85,232.83 C759.56,232.65 758.48,231.82 758.45,231.00 C758.43,230.18 757.93,229.59 757.35,229.70 C756.76,229.81 756.41,228.80 756.55,227.45 C756.70,226.10 756.43,225.00 755.94,225.00 C755.45,225.00 754.31,223.54 753.41,221.75 C752.51,219.96 750.42,217.07 748.76,215.32 C746.95,213.41 745.97,211.52 746.32,210.60 C746.68,209.68 745.94,208.31 744.45,207.14 C743.10,206.08 742.00,204.64 742.00,203.93 C742.00,202.17 738.99,199.00 737.31,199.00 C736.55,199.00 735.10,197.06 734.08,194.69 C733.07,192.32 731.06,189.61 729.62,188.67 C728.18,187.73 727.00,186.26 727.00,185.42 C727.00,184.58 725.70,182.68 724.11,181.19 C722.53,179.71 720.93,177.51 720.56,176.30 C720.20,175.09 719.04,173.83 718.00,173.50 C716.96,173.17 715.83,172.03 715.49,170.97 C715.16,169.92 713.72,168.14 712.30,167.02 C710.89,165.91 709.68,164.13 709.61,163.08 C709.55,162.02 708.52,160.03 707.33,158.66 C706.14,157.29 704.68,155.26 704.08,154.15 C703.49,153.04 702.21,151.88 701.25,151.56 C700.29,151.25 698.25,148.73 696.73,145.96 C695.16,143.10 692.91,140.54 691.51,140.00 C690.13,139.48 688.77,137.94 688.41,136.50 C688.05,135.08 686.28,132.79 684.46,131.40 C681.22,128.93 676.54,122.98 679.05,124.53 C679.84,125.02 680.06,124.90 679.63,124.22 C679.26,123.61 676.49,121.71 673.47,119.98 C667.82,116.75 665.62,114.15 666.53,111.78 C667.18,110.08 661.55,104.54 660.08,105.45 C659.46,105.84 659.00,105.34 659.00,104.27 C659.00,103.26 656.59,100.05 653.64,97.14 C648.77,92.33 648.15,92.00 646.72,93.43 C644.77,95.38 644.52,95.38 642.57,93.43 C640.25,91.11 640.66,89.38 643.02,91.52 C644.57,92.92 645.32,93.08 646.22,92.18 C647.12,91.28 646.62,90.20 644.08,87.58 C642.25,85.70 640.22,84.36 639.57,84.61 C638.91,84.86 637.50,84.08 636.44,82.86 C635.37,81.65 635.06,80.99 635.75,81.39 C637.85,82.62 637.14,80.48 634.68,78.17 C633.40,76.96 631.98,76.32 631.52,76.74 C631.06,77.16 630.96,77.01 631.30,76.41 C631.93,75.30 624.47,67.31 623.20,67.74 C621.51,68.31 619.27,66.64 616.14,62.48 C614.29,60.03 612.45,58.22 612.04,58.48 C611.63,58.73 610.28,57.87 609.05,56.55 C607.82,55.24 605.62,53.87 604.16,53.51 C602.69,53.15 600.53,51.95 599.34,50.84 C597.65,49.25 596.77,49.05 595.23,49.88 C594.15,50.46 592.96,50.62 592.58,50.25 C591.95,49.61 586.35,48.71 574.72,47.36 C571.63,47.00 569.41,47.24 568.45,48.04 C567.49,48.84 563.14,49.32 556.23,49.39 C550.33,49.45 545.28,49.73 545.00,50.02 C543.89,51.16 534.67,53.00 530.04,53.00 C527.34,53.00 524.88,53.39 524.59,53.86 C524.29,54.33 521.34,54.51 518.03,54.26 C514.71,54.01 512.00,54.21 512.00,54.71 C512.00,56.16 503.83,59.47 500.00,59.58 C498.08,59.64 494.03,60.65 491.01,61.84 C488.00,63.03 484.54,64.00 483.32,64.00 C482.11,64.00 480.81,64.50 480.43,65.11 C480.02,65.78 478.32,65.99 476.17,65.64 C473.74,65.25 472.07,65.53 470.97,66.53 C470.08,67.33 467.36,68.41 464.92,68.92 C462.49,69.43 458.48,70.59 456.00,71.51 C453.52,72.42 449.68,73.29 447.45,73.44 C445.22,73.59 442.42,74.24 441.23,74.88 C440.04,75.51 437.81,75.95 436.28,75.85 C434.75,75.74 431.24,76.81 428.48,78.23 C425.72,79.64 420.90,81.12 417.76,81.51 C413.77,82.01 411.25,82.96 409.41,84.67 C407.67,86.28 406.20,86.87 405.13,86.40 C402.28,85.14 398.92,85.73 396.61,87.90 C395.19,89.23 393.05,90.00 390.77,90.00 C388.78,90.00 385.89,90.64 384.33,91.43 C380.04,93.60 370.91,97.00 369.37,97.00 C368.61,97.00 368.00,97.68 368.00,98.50 C368.00,100.12 367.38,100.28 361.88,100.03 C359.41,99.92 358.07,100.36 357.66,101.43 C357.33,102.29 356.29,103.00 355.35,103.00 C354.40,103.00 352.66,103.91 351.47,105.03 C349.69,106.70 348.82,106.88 346.65,106.06 C344.95,105.41 344.00,105.40 344.00,106.02 C344.00,106.56 343.97,107.34 343.93,107.75 C343.85,108.75 339.70,110.93 338.87,110.42 C338.50,110.19 336.92,110.68 335.35,111.50 C333.78,112.32 331.52,112.99 330.32,112.99 C329.12,113.00 327.42,113.73 326.53,114.62 C325.06,116.08 320.28,117.75 315.76,118.38 C314.81,118.52 312.99,119.60 311.72,120.80 C310.32,122.11 308.55,122.80 307.23,122.54 C306.02,122.31 304.78,122.55 304.45,123.08 C304.13,123.60 303.49,123.81 303.04,123.53 C302.59,123.25 301.67,123.69 300.99,124.51 C300.31,125.33 298.98,126.00 298.03,126.00 C297.09,126.00 295.50,126.89 294.52,127.98 C293.53,129.07 291.23,130.24 289.39,130.59 C287.56,130.93 285.04,132.24 283.78,133.49 C281.59,135.68 270.32,141.00 267.87,141.00 C267.22,141.00 265.21,142.12 263.41,143.50 C261.61,144.88 259.26,146.00 258.20,146.00 C257.14,146.00 255.13,146.90 253.73,148.00 C252.33,149.10 250.77,150.00 250.27,150.00 C249.77,150.00 247.59,151.51 245.43,153.35 C243.27,155.19 239.87,157.00 237.88,157.37 C234.26,158.04 229.54,161.21 230.59,162.26 C231.05,162.72 227.82,164.26 226.00,164.45 C224.12,164.65 215.98,170.38 214.62,172.46 C213.62,173.98 212.02,175.00 210.63,175.00 C209.34,175.00 206.88,176.35 205.16,178.00 C203.43,179.65 201.59,181.00 201.07,181.00 C200.54,181.00 199.31,182.36 198.33,184.02 C197.31,185.75 195.98,186.82 195.21,186.53 C193.27,185.78 177.45,202.10 176.08,206.26 C175.17,209.01 175.25,210.25 176.47,212.59 C177.30,214.19 177.99,217.57 177.99,220.10 C178.00,223.25 178.63,225.42 180.00,227.00 C181.19,228.37 182.01,230.76 182.02,232.90 C182.04,237.87 183.33,239.80 185.45,238.04 C186.33,237.31 187.33,236.99 187.67,237.33 C188.01,237.67 187.55,238.24 186.64,238.58 C184.60,239.37 184.53,243.80 186.53,246.44 C187.34,247.51 188.00,249.76 188.00,251.45 C188.00,253.41 188.71,254.96 189.95,255.74 C191.64,256.79 191.76,257.39 190.84,260.04 C189.92,262.67 190.06,263.44 191.84,265.33 C192.99,266.55 194.67,270.46 195.58,274.03 C196.48,277.59 197.85,281.72 198.61,283.20 C199.38,284.69 200.00,286.91 200.00,288.15 C200.00,289.38 201.06,291.54 202.36,292.95 C203.66,294.35 205.20,297.30 205.79,299.50 C207.50,305.90 209.49,310.78 211.19,312.71 C212.06,313.69 213.01,316.08 213.29,318.00 C214.13,323.60 215.78,329.24 216.78,329.90 C217.28,330.23 217.62,331.49 217.52,332.69 C217.42,333.90 218.39,336.02 219.67,337.40 C220.95,338.78 222.00,340.35 222.00,340.88 C222.00,341.42 222.59,342.45 223.31,343.18 C224.71,344.59 227.83,352.73 228.70,357.25 C229.26,360.20 231.69,360.97 232.64,358.51 C232.95,357.68 233.61,357.26 234.10,357.56 C235.32,358.32 235.24,362.73 234.00,363.50 C232.74,364.28 232.68,368.00 233.93,368.00 C234.45,368.00 235.17,369.01 235.55,370.25 C235.92,371.49 237.04,373.40 238.03,374.50 C239.01,375.60 240.32,378.38 240.93,380.67 C241.54,382.97 242.53,385.01 243.14,385.21 C243.75,385.42 244.25,386.84 244.25,388.37 C244.25,389.90 244.87,391.40 245.62,391.69 C246.41,391.99 247.00,393.64 247.00,395.56 C247.00,399.42 248.90,404.18 250.13,403.42 C250.60,403.13 250.75,403.50 250.46,404.24 C250.18,404.97 251.31,406.88 252.97,408.48 C254.64,410.07 256.00,411.82 256.00,412.36 C256.00,412.90 256.65,414.06 257.45,414.95 C258.25,415.83 259.10,418.31 259.33,420.45 C259.57,422.60 260.49,424.89 261.38,425.54 C262.27,426.19 263.00,427.89 263.00,429.31 C263.00,430.74 263.61,432.26 264.36,432.70 C265.12,433.14 266.52,435.08 267.49,437.00 C268.45,438.92 269.81,441.17 270.50,442.00 C271.20,442.83 272.09,444.62 272.50,446.00 C272.91,447.38 273.93,449.29 274.77,450.25 C275.79,451.41 275.91,452.00 275.12,452.00 C274.24,452.00 274.21,452.52 275.00,454.00 C275.59,455.10 276.76,456.00 277.59,456.00 C278.43,456.00 278.84,456.45 278.50,457.00 C278.16,457.55 278.36,458.00 278.94,458.00 C279.52,458.00 280.00,459.30 280.00,460.89 C280.00,462.54 280.64,464.03 281.50,464.36 C282.33,464.68 283.00,465.85 283.00,466.97 C283.00,468.09 284.91,470.88 287.25,473.18 C289.59,475.47 290.83,476.98 290.00,476.53 C288.78,475.86 288.73,475.96 289.75,477.05 C290.44,477.79 291.00,479.20 291.00,480.18 C291.00,481.15 292.07,482.66 293.38,483.52 C294.69,484.37 296.05,486.48 296.39,488.20 C296.73,489.91 297.29,491.04 297.64,490.69 C298.52,489.81 304.03,495.91 305.61,499.50 C306.33,501.15 308.29,504.02 309.96,505.89 C311.63,507.75 313.00,509.92 313.00,510.70 C313.00,513.47 318.13,519.00 320.69,519.00 C322.04,519.00 323.82,519.68 324.64,520.50 C326.20,522.05 330.30,521.67 332.74,519.75 ZM 317.00 915.05 C321.12,914.44 325.62,913.45 327.00,912.85 C329.59,911.71 340.77,910.65 349.50,910.71 C352.25,910.73 354.82,910.24 355.22,909.62 C355.64,908.96 358.96,908.50 363.37,908.50 C367.46,908.50 370.61,908.19 370.38,907.80 C369.94,907.09 370.68,906.92 384.12,904.63 C390.43,903.56 392.05,903.56 393.56,904.67 C394.55,905.39 396.16,905.85 397.51,905.96 C377.53,909.58 358.39,912.16 335.00,914.67 C298.33,918.61 297.41,918.64 295.98,915.96 C294.07,912.39 292.06,877.96 292.03,848.24 C292.00,819.57 293.93,777.09 296.45,751.00 C297.28,742.47 298.66,727.85 299.53,718.50 C300.41,709.15 301.77,697.67 302.56,693.00 C303.35,688.33 304.89,676.26 305.99,666.19 C307.09,656.12 308.65,645.02 309.46,641.53 C310.26,638.05 311.86,628.74 313.00,620.85 C315.81,601.41 318.39,588.25 321.51,577.51 C324.82,566.14 329.33,555.85 331.68,554.32 C332.68,553.67 339.12,552.63 346.00,552.02 C365.74,550.26 371.84,549.22 399.50,542.86 C448.43,531.62 497.05,517.05 522.63,505.96 C528.76,503.31 540.68,498.38 549.13,495.00 C566.00,488.28 602.35,470.72 633.50,454.27 C680.58,429.41 699.28,417.86 729.88,394.77 C753.72,376.79 762.35,369.52 773.66,357.90 C782.73,348.59 784.91,346.13 801.77,326.25 C806.56,320.61 811.23,316.00 812.16,316.00 C815.97,316.00 823.44,327.66 840.73,361.10 C838.83,358.92 835.54,356.22 834.59,356.43 C833.99,356.56 833.84,356.48 834.26,356.25 C834.67,356.02 834.11,354.56 833.01,353.01 C831.90,351.46 831.00,349.33 831.00,348.27 C831.00,347.21 829.88,345.29 828.50,344.00 C826.80,342.40 826.00,340.58 826.00,338.30 C826.00,335.65 825.48,334.75 823.50,334.00 C821.61,333.28 821.00,332.33 821.00,330.08 C821.00,328.15 820.23,326.57 818.78,325.56 C817.56,324.70 816.95,324.00 817.43,324.00 C817.91,324.00 817.27,323.10 816.00,322.00 C814.73,320.90 812.92,320.00 811.96,320.00 C810.05,320.00 808.49,323.94 810.34,324.10 C810.98,324.15 810.38,324.51 809.01,324.89 C807.64,325.27 806.04,326.54 805.46,327.70 C804.88,328.87 802.40,331.43 799.95,333.40 C797.50,335.37 794.24,337.99 792.71,339.23 C791.17,340.46 789.64,342.58 789.30,343.94 C788.96,345.29 787.41,347.47 785.84,348.79 C784.28,350.10 783.00,351.81 783.00,352.59 C783.00,353.36 782.66,354.01 782.25,354.02 C781.84,354.03 780.38,354.97 779.00,356.11 C777.62,357.24 777.17,357.88 778.00,357.51 C778.83,357.15 775.76,360.48 771.19,364.92 C766.62,369.37 762.24,373.00 761.46,373.00 C760.02,373.00 755.43,376.82 747.05,385.00 C744.52,387.48 739.28,391.63 735.42,394.23 C731.56,396.84 727.40,400.33 726.17,401.98 C724.94,403.64 723.38,405.00 722.70,405.00 C722.01,405.00 719.89,406.29 717.98,407.87 C716.07,409.44 712.98,411.07 711.12,411.47 C708.71,412.00 708.13,412.46 709.10,413.06 C710.08,413.67 709.06,414.52 705.48,416.09 C702.74,417.30 700.35,418.67 700.16,419.15 C699.98,419.62 699.44,419.77 698.97,419.48 C698.49,419.18 697.09,420.31 695.86,421.97 C694.43,423.91 692.74,425.00 691.17,425.00 C687.83,425.00 680.95,429.54 678.49,433.36 C676.83,435.93 675.59,436.60 671.49,437.18 C667.60,437.73 665.92,438.58 663.86,441.02 C662.32,442.86 660.45,444.05 659.36,443.89 C657.72,443.65 649.78,447.96 646.23,451.02 C645.53,451.63 643.62,452.59 641.98,453.16 C640.34,453.73 639.00,454.60 639.00,455.10 C639.00,455.59 637.40,456.00 635.45,456.00 C632.50,456.00 631.70,456.48 630.70,458.84 C629.84,460.88 628.86,461.62 627.21,461.50 C625.96,461.41 623.97,462.15 622.81,463.16 C621.65,464.17 620.00,465.00 619.16,465.00 C618.32,465.00 616.61,465.96 615.36,467.13 C614.11,468.31 611.49,469.44 609.53,469.66 C607.57,469.87 604.54,470.92 602.80,471.97 C601.06,473.03 599.20,473.63 598.67,473.29 C598.13,472.96 597.97,473.14 598.31,473.69 C599.21,475.15 594.07,478.58 589.78,479.38 C587.73,479.77 584.74,481.19 583.14,482.54 C581.53,483.89 579.54,485.00 578.73,485.00 C576.55,485.00 569.90,487.93 567.13,490.11 C565.81,491.15 563.95,492.00 562.99,492.00 C562.03,492.00 560.68,492.67 560.00,493.50 C559.32,494.33 557.40,495.00 555.74,495.00 C554.08,495.00 552.19,495.72 551.54,496.61 C550.90,497.50 548.82,498.39 546.93,498.60 C543.07,499.03 538.89,500.89 537.72,502.71 C537.30,503.37 535.27,504.23 533.22,504.60 C531.18,504.98 529.19,505.77 528.81,506.35 C528.43,506.94 526.52,507.31 524.55,507.18 C521.51,506.97 520.83,507.33 519.98,509.55 C519.43,510.99 518.44,511.98 517.77,511.76 C516.32,511.27 505.20,514.93 497.66,518.38 C494.69,519.74 490.33,521.37 487.97,522.01 C485.61,522.64 482.64,523.84 481.37,524.67 C479.73,525.75 477.90,525.99 475.03,525.51 C472.66,525.10 471.00,525.22 471.00,525.78 C471.00,526.31 468.30,527.27 465.00,527.92 C461.70,528.57 457.44,529.75 455.54,530.55 C453.63,531.35 450.79,532.00 449.23,532.00 C447.67,532.00 445.96,532.44 445.42,532.98 C443.82,534.58 433.05,537.96 431.47,537.35 C430.66,537.04 430.00,537.31 430.00,537.95 C430.00,538.59 429.58,538.86 429.07,538.54 C428.56,538.23 427.85,538.44 427.49,539.01 C427.10,539.65 424.98,539.80 421.97,539.40 C417.78,538.85 416.44,539.14 412.41,541.50 C408.34,543.88 407.28,544.11 404.39,543.23 C402.57,542.67 401.13,542.50 401.19,542.85 C401.68,545.37 399.47,547.00 395.61,547.00 C393.31,547.00 388.98,547.71 385.97,548.58 C382.96,549.45 376.67,550.54 372.00,551.01 C367.33,551.47 362.15,552.55 360.50,553.42 C357.11,555.19 352.43,555.50 351.50,554.00 C350.74,552.77 345.00,552.66 345.00,553.88 C345.00,554.37 342.48,555.08 339.41,555.47 C334.62,556.07 333.57,556.59 332.16,559.08 C331.24,560.68 330.16,561.99 329.75,561.99 C329.34,562.00 328.99,563.01 328.97,564.25 C328.95,565.49 327.83,568.30 326.47,570.50 C325.12,572.70 324.01,575.93 324.01,577.68 C324.00,579.43 323.33,581.53 322.50,582.36 C321.67,583.19 321.00,585.64 321.00,587.87 C321.00,590.08 320.57,592.15 320.04,592.47 C319.52,592.80 319.33,593.71 319.64,594.49 C319.94,595.28 319.65,598.30 319.01,601.21 C318.36,604.12 317.64,607.85 317.40,609.50 C316.86,613.30 315.10,619.76 313.74,623.00 C312.25,626.52 312.84,631.14 315.09,633.56 C317.17,635.81 317.58,638.52 315.99,639.50 C315.44,639.85 314.71,639.41 314.38,638.54 C313.17,635.40 311.00,639.00 311.00,644.14 C311.00,646.83 310.49,649.85 309.86,650.85 C309.08,652.10 309.03,653.58 309.68,655.54 C310.24,657.22 310.30,660.50 309.82,663.45 C309.37,666.23 308.59,672.05 308.10,676.38 C307.60,680.72 306.67,684.59 306.02,684.99 C305.28,685.44 305.09,686.95 305.49,689.12 C305.87,691.12 305.54,694.39 304.71,697.02 C303.92,699.48 303.21,704.17 303.12,707.42 C303.03,710.68 302.47,713.93 301.89,714.63 C301.30,715.35 301.11,717.24 301.47,718.88 C301.85,720.60 301.46,724.08 300.54,727.17 C299.42,730.93 298.99,736.24 299.07,745.20 C299.13,752.19 298.81,758.49 298.36,759.20 C297.42,760.69 296.78,771.84 296.97,783.33 C297.05,787.64 296.68,791.69 296.17,792.33 C295.65,792.97 294.96,799.45 294.63,806.72 C293.84,824.07 293.75,880.18 294.50,882.14 C294.82,882.98 295.21,887.91 295.37,893.08 C295.52,898.26 296.36,904.97 297.24,907.98 C298.11,911.00 298.62,913.81 298.36,914.23 C298.09,914.66 298.19,915.50 298.57,916.11 C299.29,917.28 303.33,917.05 317.00,915.05 ZM 399.88 905.53 C399.96,905.43 400.00,905.32 400.00,905.19 C400.00,903.34 408.43,900.75 414.02,900.87 C418.49,900.98 420.76,900.45 424.14,898.51 C426.54,897.14 429.98,896.02 431.79,896.01 C433.60,896.01 436.84,895.10 439.00,894.00 C441.16,892.90 444.06,892.00 445.46,892.00 C446.86,892.00 448.00,891.58 448.00,891.07 C448.00,890.54 451.83,890.28 456.87,890.46 C465.47,890.78 468.37,890.18 468.62,888.04 C468.69,887.47 468.81,886.49 468.88,885.87 C468.96,885.08 471.15,884.93 476.13,885.37 C482.83,885.96 483.41,885.85 485.54,883.55 C487.42,881.52 488.44,881.20 491.45,881.68 C495.10,882.28 500.83,880.20 508.25,875.60 C509.54,874.80 510.55,874.86 512.08,875.82 C513.85,876.92 514.57,876.85 516.83,875.31 C518.54,874.15 521.33,873.50 524.58,873.50 C528.58,873.50 530.42,872.92 533.26,870.75 C535.24,869.24 537.97,868.00 539.31,868.00 C540.66,868.00 542.32,867.32 543.02,866.48 C543.77,865.57 545.61,865.05 547.59,865.18 C549.46,865.30 551.68,864.72 552.70,863.83 C553.69,862.97 555.62,862.01 557.00,861.71 C564.11,860.15 570.73,857.82 576.82,854.73 C580.54,852.84 585.65,850.98 588.16,850.60 C590.67,850.23 593.58,849.28 594.61,848.49 C595.65,847.71 597.13,847.05 597.91,847.03 C598.68,847.01 600.82,845.85 602.66,844.45 C604.49,843.05 606.00,842.22 606.00,842.60 C606.00,842.99 606.98,842.45 608.17,841.40 C610.31,839.53 610.33,839.53 609.61,841.50 C609.03,843.10 609.13,843.25 610.14,842.25 C610.83,841.56 612.61,841.00 614.09,841.00 C615.57,841.00 617.05,840.33 617.36,839.50 C617.68,838.67 618.87,838.00 620.02,838.00 C621.16,838.00 623.41,837.32 625.02,836.49 C626.63,835.66 628.29,835.08 628.72,835.20 C629.15,835.31 630.94,834.64 632.70,833.71 C634.46,832.77 636.61,832.00 637.47,832.00 C638.34,832.00 639.54,830.91 640.15,829.58 C640.75,828.25 641.83,827.38 642.53,827.65 C643.24,827.92 645.10,827.49 646.66,826.70 C648.25,825.89 651.16,825.43 653.25,825.65 C657.64,826.12 658.38,824.17 654.75,821.73 C653.51,820.90 652.77,819.93 653.11,819.59 C654.01,818.64 657.00,820.03 657.00,821.40 C657.00,822.06 658.50,822.69 660.33,822.82 C663.03,823.00 663.88,822.56 664.81,820.52 C665.44,819.13 666.59,818.00 667.36,818.00 C670.05,818.00 679.51,814.65 681.50,813.00 C682.60,812.09 685.31,810.83 687.51,810.20 C689.72,809.57 693.07,807.92 694.96,806.53 C696.85,805.14 698.90,804.00 699.52,804.00 C701.32,804.00 712.63,798.14 719.21,793.79 C720.70,792.81 723.26,792.00 724.90,792.00 C726.77,792.00 728.42,791.24 729.32,789.96 C730.11,788.83 732.00,787.69 733.53,787.41 C736.37,786.89 745.25,782.15 745.81,780.85 C745.99,780.45 749.03,779.15 752.58,777.97 C759.05,775.82 760.27,775.02 762.93,771.18 C763.72,770.04 764.77,769.36 765.26,769.66 C765.76,769.97 767.36,769.10 768.83,767.72 C770.30,766.35 774.83,763.52 778.90,761.44 C782.97,759.36 788.34,756.10 790.82,754.20 C795.46,750.66 806.50,745.00 808.77,745.00 C809.48,745.00 810.48,743.88 811.00,742.50 C811.52,741.12 812.21,740.00 812.53,740.00 C812.86,740.00 812.86,740.42 812.54,740.94 C812.22,741.46 812.87,741.81 813.98,741.73 C815.09,741.64 816.26,740.76 816.57,739.77 C816.89,738.78 818.93,737.06 821.11,735.94 C823.29,734.83 824.83,733.54 824.54,733.07 C823.94,732.09 826.31,730.88 830.00,730.29 C831.38,730.07 833.55,728.56 834.82,726.94 C836.10,725.32 837.99,724.00 839.03,724.00 C840.07,724.00 841.50,723.28 842.21,722.40 C845.90,717.84 848.10,716.00 849.86,716.00 C852.02,716.00 860.00,711.13 860.00,709.82 C860.00,709.37 860.43,709.11 860.96,709.25 C861.78,709.46 867.35,704.66 877.01,695.41 C878.39,694.08 880.28,693.00 881.21,693.00 C882.14,693.00 885.14,690.77 887.87,688.03 C890.67,685.23 894.07,682.85 895.67,682.56 C897.53,682.22 900.93,679.46 905.56,674.54 C909.46,670.39 914.05,666.53 915.81,665.92 C919.27,664.71 919.87,662.96 917.50,661.00 C915.75,659.55 915.53,658.00 917.07,658.00 C918.66,658.00 921.01,660.64 920.20,661.52 C919.82,661.93 920.53,661.74 921.78,661.08 C923.06,660.42 923.94,659.15 923.78,658.20 C923.58,657.00 924.31,656.41 926.25,656.18 C928.96,655.87 929.40,655.18 929.05,651.75 C928.95,650.77 929.55,650.00 930.40,650.00 C932.55,650.00 934.17,646.51 933.41,643.51 C933.04,642.04 933.30,640.34 934.02,639.47 C935.02,638.28 935.01,636.77 934.01,632.03 C933.31,628.76 933.00,625.09 933.32,623.88 C933.64,622.67 933.24,620.13 932.45,618.22 C931.65,616.31 931.00,612.71 931.00,610.21 C931.00,607.40 930.37,604.97 929.37,603.85 C928.44,602.83 927.56,599.76 927.34,596.78 C927.13,593.89 926.06,589.81 924.98,587.73 C923.78,585.44 923.00,581.97 923.00,578.97 C923.00,576.24 922.57,574.00 922.05,574.00 C920.54,574.00 919.76,567.76 920.90,564.78 C921.49,563.21 921.55,561.84 921.02,561.52 C918.34,559.85 913.12,543.82 913.84,539.41 C913.93,538.81 913.11,537.51 912.01,536.51 C910.90,535.51 910.00,533.61 910.00,532.28 C910.00,530.95 909.45,528.89 908.79,527.68 C908.12,526.48 907.50,524.34 907.41,522.92 C907.32,521.49 906.47,518.68 905.51,516.66 C904.55,514.64 903.99,511.83 904.26,510.41 C904.65,508.37 904.41,507.92 903.10,508.26 C900.60,508.92 899.39,506.98 898.60,501.06 C898.21,498.12 897.04,494.03 895.99,491.98 C894.94,489.93 894.18,488.08 894.29,487.87 C894.41,487.67 894.34,487.59 894.14,487.69 C893.94,487.80 892.67,486.57 891.31,484.95 C889.44,482.73 888.99,481.33 889.46,479.19 C889.89,477.25 889.29,474.68 887.55,470.93 C886.10,467.81 885.02,463.68 885.01,461.23 C885.00,457.54 884.64,456.81 882.39,455.96 C880.08,455.08 879.86,454.58 880.42,451.56 C881.15,447.68 879.97,446.41 877.08,447.96 C874.41,449.39 873.40,447.57 875.28,444.70 C876.77,442.42 876.17,438.84 874.07,437.54 C873.48,437.18 873.27,435.78 873.60,434.44 C873.94,433.10 873.93,431.27 873.59,430.37 C873.01,428.87 872.78,428.89 870.98,430.52 C869.89,431.50 869.00,433.24 869.00,434.37 C869.00,436.34 868.92,436.35 867.25,434.67 C865.58,432.99 865.63,432.67 868.25,427.95 C869.76,425.23 870.55,422.94 870.00,422.88 C869.45,422.81 868.55,422.64 868.00,422.50 C867.45,422.36 866.66,422.19 866.24,422.12 C865.34,421.98 863.00,414.80 863.00,412.16 C863.00,411.13 861.88,409.08 860.50,407.59 C858.82,405.79 858.00,403.74 858.00,401.40 C858.00,397.41 856.17,393.37 853.10,390.59 C851.95,389.55 851.00,387.63 851.00,386.35 C851.00,385.06 850.60,384.00 850.11,384.00 C849.62,384.00 848.53,382.31 847.69,380.25 C846.85,378.19 845.20,375.69 844.01,374.70 C842.37,373.32 841.89,371.90 842.02,368.70 C842.10,366.78 842.13,364.79 842.11,363.79 C843.76,367.00 845.50,370.40 847.33,374.00 C854.74,388.58 862.83,405.23 865.30,411.00 C867.78,416.77 871.24,424.65 873.00,428.50 C884.87,454.53 892.82,474.78 906.96,515.00 C915.73,539.94 916.36,542.07 925.02,576.35 C936.23,620.73 938.69,636.39 935.96,646.21 C934.32,652.10 925.03,661.37 898.99,683.07 C863.11,712.97 776.80,769.12 733.50,790.74 C683.89,815.51 623.42,841.50 580.00,856.72 C551.48,866.72 548.52,867.79 544.72,869.43 C541.22,870.93 512.29,878.94 485.00,885.96 C449.33,895.14 423.85,901.10 399.88,905.53 ZM 677.57 138.43 C676.71,137.56 676.01,135.65 676.03,134.18 L 676.07 131.50 L 677.98 133.80 C679.04,135.06 680.94,136.96 682.20,138.02 L 684.50 139.93 L 681.82 139.97 C680.35,139.99 678.44,139.29 677.57,138.43 ZM 227.00 171.12 C227.00,170.00 232.87,167.53 233.66,168.32 C233.98,168.65 233.98,169.61 233.65,170.46 C233.03,172.09 227.00,172.69 227.00,171.12 ZM 329.00 583.61 C329.00,581.28 331.69,575.69 332.32,576.71 C333.07,577.92 330.95,585.00 329.83,585.00 C329.37,585.00 329.00,584.38 329.00,583.61 ZM 265.00 424.26 C265.00,421.86 267.24,417.02 268.36,417.01 C268.83,417.00 268.88,417.79 268.48,418.75 C268.07,419.71 267.52,421.52 267.25,422.76 C266.63,425.64 265.00,426.72 265.00,424.26 ZM 196.39 376.58 C196.06,375.71 196.09,374.21 196.46,373.25 C197.10,371.62 197.24,371.64 198.58,373.46 C199.38,374.54 199.88,375.86 199.70,376.40 C199.13,378.11 197.02,378.23 196.39,376.58 ZM 38.55 435.07 C37.57,433.49 39.98,429.58 41.19,430.79 C42.44,432.04 41.89,435.20 40.34,435.72 C39.70,435.93 38.90,435.64 38.55,435.07 ZM 899.68 522.35 C898.62,521.28 898.88,518.00 900.03,518.00 C901.51,518.00 902.44,520.96 901.32,522.08 C900.79,522.61 900.06,522.73 899.68,522.35 ZM 550.00 452.00 C550.00,450.73 554.03,450.73 556.00,452.00 C557.12,452.72 556.54,452.97 553.75,452.98 C551.69,452.99 550.00,452.55 550.00,452.00 ZM 415.00 500.00 C415.00,499.45 416.35,499.00 418.00,499.00 C419.65,499.00 421.00,499.45 421.00,500.00 C421.00,500.55 419.65,501.00 418.00,501.00 C416.35,501.00 415.00,500.55 415.00,500.00 ZM 110.42 674.62 C109.27,673.38 109.64,671.00 110.98,671.00 C112.14,671.00 112.93,673.50 112.16,674.73 C111.71,675.45 111.16,675.41 110.42,674.62 ZM 797.17 341.34 C797.37,340.33 798.20,339.50 799.01,339.50 C801.16,339.50 800.85,342.41 798.66,342.83 C797.32,343.08 796.92,342.68 797.17,341.34 ZM 869.00 438.92 C869.00,436.48 871.34,436.82 871.82,439.33 C872.01,440.32 871.50,441.00 870.57,441.00 C869.65,441.00 869.00,440.14 869.00,438.92 ZM 313.35 498.46 C313.02,497.61 313.00,496.66 313.31,496.36 C314.19,495.48 316.00,496.97 316.00,498.56 C316.00,500.48 314.09,500.40 313.35,498.46 ZM 73.68 585.60 C73.11,584.13 73.76,583.00 75.17,583.00 C75.62,583.00 76.00,583.90 76.00,585.00 C76.00,587.29 74.48,587.68 73.68,585.60 ZM 170.50 774.00 C169.68,772.68 170.88,770.81 172.07,771.54 C173.28,772.29 173.28,775.00 172.06,775.00 C171.54,775.00 170.84,774.55 170.50,774.00 ZM 447.29 536.62 C447.75,535.23 452.00,534.50 452.00,535.81 C452.00,536.34 450.86,536.99 449.46,537.25 C447.86,537.56 447.06,537.33 447.29,536.62 ZM 57.00 392.27 C57.00,391.78 57.69,390.51 58.53,389.44 C60.01,387.56 60.05,387.58 59.78,389.92 C59.52,392.16 57.00,394.29 57.00,392.27 ZM 260.00 884.50 C260.00,883.47 260.66,882.98 261.75,883.19 C263.86,883.60 263.72,885.37 261.55,885.82 C260.65,886.01 260.00,885.46 260.00,884.50 ZM 809.00 335.58 C809.00,334.71 809.71,334.00 810.58,334.00 C811.45,334.00 811.99,334.53 811.77,335.19 C811.15,337.04 809.00,337.35 809.00,335.58 ZM 190.00 202.58 C190.00,201.71 190.71,201.00 191.58,201.00 C193.35,201.00 193.04,203.15 191.19,203.77 C190.53,203.99 190.00,203.45 190.00,202.58 ZM 778.00 367.50 C778.00,366.67 778.45,366.00 779.00,366.00 C779.55,366.00 780.00,366.67 780.00,367.50 C780.00,368.33 779.55,369.00 779.00,369.00 C778.45,369.00 778.00,368.33 778.00,367.50 ZM 276.00 526.50 C276.00,525.67 276.45,525.00 277.00,525.00 C277.55,525.00 278.00,525.67 278.00,526.50 C278.00,527.33 277.55,528.00 277.00,528.00 C276.45,528.00 276.00,527.33 276.00,526.50 ZM 180.73 329.40 C180.33,328.99 180.00,327.98 180.00,327.13 C180.00,326.01 180.30,325.90 181.11,326.71 C181.72,327.32 182.05,328.34 181.84,328.98 C181.63,329.61 181.13,329.80 180.73,329.40 ZM 151.00 243.06 C151.00,242.54 151.45,241.84 152.00,241.50 C152.55,241.16 153.00,241.58 153.00,242.44 C153.00,243.30 152.55,244.00 152.00,244.00 C151.45,244.00 151.00,243.58 151.00,243.06 ZM 782.50 363.00 C782.84,362.45 783.54,362.00 784.06,362.00 C784.58,362.00 785.00,362.45 785.00,363.00 C785.00,363.55 784.30,364.00 783.44,364.00 C782.58,364.00 782.16,363.55 782.50,363.00 ZM 643.98 90.48 C642.92,89.20 642.99,89.06 644.36,89.58 C645.26,89.93 646.00,90.62 646.00,91.11 C646.00,92.39 645.42,92.21 643.98,90.48 Z" fill="rgb(20,19,131)"/>
<path d="M 0.00 482.00 L 0.00 0.00 L 482.00 0.00 L 964.00 0.00 L 964.00 482.00 L 964.00 964.00 L 482.00 964.00 L 0.00 964.00 L 0.00 482.00 ZM 335.00 914.67 C387.27,909.05 418.31,903.11 485.00,885.96 C512.29,878.94 541.22,870.93 544.72,869.43 C548.52,867.79 551.48,866.72 580.00,856.72 C623.42,841.50 683.89,815.51 733.50,790.74 C776.80,769.12 863.11,712.97 898.99,683.07 C925.03,661.37 934.32,652.10 935.96,646.21 C938.69,636.39 936.23,620.73 925.02,576.35 C916.36,542.07 915.73,539.94 906.96,515.00 C892.82,474.78 884.87,454.53 873.00,428.50 C871.24,424.65 867.78,416.77 865.30,411.00 C862.83,405.23 854.74,388.58 847.33,374.00 C825.28,330.61 816.42,316.00 812.16,316.00 C811.23,316.00 806.56,320.61 801.77,326.25 C784.91,346.13 782.73,348.59 773.66,357.90 C762.35,369.52 753.72,376.79 729.88,394.77 C699.28,417.86 680.58,429.41 633.50,454.27 C602.35,470.72 566.00,488.28 549.13,495.00 C540.68,498.38 528.76,503.31 522.63,505.96 C497.05,517.05 448.43,531.62 399.50,542.86 C371.84,549.22 365.74,550.26 346.00,552.02 C339.12,552.63 332.68,553.67 331.68,554.32 C329.33,555.85 324.82,566.14 321.51,577.51 C318.39,588.25 315.81,601.41 313.00,620.85 C311.86,628.74 310.26,638.05 309.46,641.53 C308.65,645.02 307.09,656.12 305.99,666.19 C304.89,676.26 303.35,688.33 302.56,693.00 C301.77,697.67 300.41,709.15 299.53,718.50 C298.66,727.85 297.28,742.47 296.45,751.00 C293.93,777.09 292.00,819.57 292.03,848.24 C292.06,877.96 294.07,912.39 295.98,915.96 C297.41,918.64 298.33,918.61 335.00,914.67 ZM 268.63 894.33 C269.00,892.86 269.02,882.17 268.68,870.58 C267.38,826.85 271.82,747.66 278.50,695.50 C279.27,689.45 280.19,680.90 280.53,676.50 C280.87,672.10 281.77,664.67 282.52,660.00 C283.27,655.33 284.61,645.65 285.50,638.50 C287.71,620.66 292.22,598.83 299.14,572.50 C301.92,561.94 304.02,549.66 303.17,549.01 C302.80,548.73 300.75,545.80 298.61,542.50 C296.48,539.20 292.59,533.58 289.98,530.00 C284.58,522.61 277.38,510.65 272.41,500.80 C270.55,497.12 267.06,491.04 264.65,487.30 C258.87,478.31 244.93,451.96 236.72,434.50 C217.91,394.47 206.94,370.46 198.82,351.50 C193.86,339.95 187.80,325.91 185.35,320.30 C182.89,314.69 177.12,298.94 172.53,285.30 C167.93,271.66 162.81,256.67 161.15,252.00 C157.49,241.70 151.00,219.66 151.00,217.53 C151.00,213.54 147.17,217.22 136.72,231.25 C93.73,288.94 62.22,348.08 41.56,409.82 C38.56,418.79 34.97,430.94 33.60,436.82 C27.10,464.58 26.00,469.92 26.00,473.75 C26.00,484.26 44.61,541.51 58.76,574.50 C63.71,586.05 70.08,601.41 72.92,608.64 C84.90,639.19 126.52,718.15 145.86,747.00 C197.36,823.86 222.93,857.96 247.27,882.25 C259.64,894.59 262.53,897.00 265.00,897.00 C267.38,897.00 268.09,896.47 268.63,894.33 ZM 349.00 521.01 C377.06,517.92 454.60,500.30 479.12,491.44 C483.18,489.97 491.67,487.08 498.00,485.01 C533.97,473.25 601.62,441.37 643.00,416.68 C675.92,397.05 684.52,391.39 707.72,374.11 C754.28,339.43 775.88,318.27 789.02,294.46 C791.27,290.39 793.54,286.79 794.06,286.46 C795.83,285.37 795.00,282.69 790.37,274.60 C775.24,248.11 749.07,209.57 723.57,176.24 C692.16,135.16 678.74,119.93 642.33,83.93 C617.68,59.56 610.73,53.38 604.45,50.20 C590.81,43.33 560.61,44.63 513.50,54.11 C499.21,56.99 457.96,67.27 441.50,72.05 C433.80,74.29 422.94,77.43 417.36,79.02 C355.00,96.90 270.96,133.50 221.50,164.33 C205.91,174.05 180.30,194.20 174.90,201.00 L 172.12 204.50 L 173.90 213.00 C176.07,223.34 183.05,245.51 191.53,269.00 C200.48,293.79 215.54,332.15 219.06,339.11 C220.69,342.35 222.96,347.37 224.10,350.25 C225.23,353.14 230.35,364.50 235.47,375.50 C240.58,386.50 246.00,398.42 247.50,402.00 C263.07,439.02 309.00,515.57 319.35,521.79 C321.68,523.19 331.67,522.92 349.00,521.01 Z" fill="rgb(254,254,254)"/>
</g>
</svg>